<?xml version="1.0" standalone="no"?>
<!DOCTYPE svg PUBLIC "-//W3C//DTD SVG 20010904//EN"
 "http://www.w3.org/TR/2001/REC-SVG-20010904/DTD/svg10.dtd">
<svg version="1.0" xmlns="http://www.w3.org/2000/svg"
 width="260.000000pt" height="260.000000pt" viewBox="0 0 260.000000 260.000000"
 preserveAspectRatio="xMidYMid meet">
<metadata>
Created by potrace 1.11, written by Peter Selinger 2001-2013
</metadata>
<g transform="translate(0.000000,260.000000) scale(0.100000,-0.100000)"
fill="#000000" stroke="none">
<path d="M300 1736 c-188 -51 -304 -210 -296 -402 4 -90 16 -128 61 -199 100
-155 294 -221 472 -160 99 34 194 128 238 235 24 60 28 196 7 259 -67 203
-283 322 -482 267z"/>
<path d="M1185 1733 c-116 -39 -189 -103 -240 -206 -111 -225 4 -489 243 -561
67 -19 191 -15 252 9 171 69 272 230 257 408 -13 152 -111 283 -257 342 -57
23 -198 27 -255 8z"/>
<path d="M2076 1729 c-112 -38 -187 -106 -240 -219 -28 -58 -31 -75 -31 -160
0 -86 3 -102 31 -160 71 -150 188 -229 348 -236 169 -7 305 76 380 236 28 59
31 74 31 161 0 90 -3 100 -38 171 -44 91 -103 148 -195 191 -86 40 -196 46
-286 16z"/>
</g>
</svg>
