<svg viewBox="0 0 546 542" fill="none" xmlns="http://www.w3.org/2000/svg">
<rect fill="none"/>
<rect x="-30" fill="white"/>
<circle opacity="0.2" cx="270.5" cy="270.5" r="270.5" fill="#F2994A"/>
<path opacity="0.2" fill-rule="evenodd" clip-rule="evenodd" d="M259.05 540.762C141.122 535.851 42.6983 455.439 10.8514 346.599L13 348L29.5 363L44.5 377.5L65 390H108L120 415L113.5 427L130 431.5L137.5 427H151.5L170.5 445.5L178 449L211 476L234 505L254.5 533L259.05 540.762ZM427.195 491.019C420.559 495.743 413.7 500.175 406.637 504.296L398.5 488.5L379.5 472.5L374.5 462L379.5 457H393.5L407 476L422 481L427.195 491.019Z" fill="#56CCF2"/>
<path opacity="0.4" d="M334 383V395L360 408L374.5 421L384 433.5H438L442.5 424L441.5 416L426.5 412.5V405.5H442.5L450 403L455 414L461 419L466.5 411L461 408V399.5L463.5 397.5L465 388L457 380L455 371.5L445.5 356.5C442.667 351.333 436.7 339.9 435.5 335.5H430L416.5 356.5L415 353H395L393.5 356.5L395 363H416.5V371.5L426.5 388L416.5 395L395 396.5L392 390.5L384 388L387 376L355 374.5V383H334Z" fill="#DDB99E"/>
<path opacity="0.4" d="M371 244.5L366 251H383.5L402 262.5L397 269L399 280L409 286.5L414 295.5H427.5L448 288L477 282.5L487 267.5L496.5 269V251H500V223.5L492.5 216.5H488.5V225.5H485L482.5 230H478.5L475 223.5H478.5V216.5H482.5L483.5 206.5L470 195L449 196.5L445.5 192L442 195L445.5 205L439 206.5L437 200.5L424.5 195L431 188.5L437 186.5V178H427.5L417 183L418 198L387.5 210.5V202L380 200.5L371 206.5L374 218L371 244.5Z" fill="#DDB99E"/>
<path opacity="0.4" fill-rule="evenodd" clip-rule="evenodd" d="M433.5 54.6078C440.188 59.6654 446.634 65.0266 452.817 70.671L453 71L457 77.5L454.5 86.5C454.5 88 453.7 91.7 450.5 94.5L454.5 100.5V107H446.5L448.5 110L451.5 116.5V130.5H454.5V141.5H451.5V134H448.5V128.5H440.5V118H436.5L437.5 111.5H433.5V95.5L437.5 92.5V76H433.5V65L433.5 54.6078Z" fill="#DDB99E"/>
<path opacity="0.4" d="M532 255.5L522.5 247.5L514.5 250V256.5L521 267V272L527 279L532 272L530.5 263L532 260.5V255.5Z" fill="#DDB99E"/>
<path opacity="0.4" d="M119.5 333.5L109 344.5L108 346.5L118.5 347.5V353L123 353.5V355H128C128.5 355.333 129.9 356.3 131.5 357.5H137L140.5 360V364L149.5 365L153.5 368.5L164.5 368V370.5H183V372.5H190.5V370.5H203V368H220L226.5 365L232.5 362.5L236.5 365L241.5 367L245.5 370.5L253.5 371.5V368L258 369V374L259 377.5L261.5 378.5V380.5H269V382H273L273.5 384C274 384.167 275.5 384.5 277.5 384.5L281 386V392H284.5V394.5H286.5L286 389H289V391.5H290.5V389H292.5V391.5H294.5V389H298.5V395H304V374H306.5V372.5H308.5V368H312V360H310V354.5H305.5V352.5L302 351.5V349H298.5V346.5L297 346H278.5V343.5H261.5V346H246.5C245.3 349.6 240.667 351.167 238.5 351.5L221.5 347.5L220 341.5H201L197.5 338.5V334.5C192 334.667 178.9 334.9 170.5 334.5L165.5 332V330L163 328.5V326H153.5V330H141.5V336.5H133L131.5 332L119.5 333.5Z" fill="#DDB99E"/>
<path opacity="0.4" d="M321.5 407.5H292.5L288.5 417.5H292.5V432H288.5V443.5L292.5 445V453.5H296.5L300 447.5H325.5V453.5L331 455V462.5L339 464V468.5H318.5V477H306.5L303 481.5L288.5 470.5L278 465.5H268.5V470.5L271 477L292.5 488L284 503V514.5H297.5V504.5L295 503V495L303 486H320V479L327.5 480.5V500L325.5 514.5H343.5V500L335.5 498V489.5H339V477L353 488L349 477L358 479V483L365.5 486H374V468.5H370.5L362 460.5V455L350 445V432L339 430L333 419.5H325.5V423.5H321.5V407.5Z" fill="#DDB99E"/>
<path opacity="0.4" d="M199.5 426.5V411.5H194.5V406.5L181 405V395.5H185.5L187 402.5L189.5 399.5H194.5V402.5L199.5 406.5V411.5H207.5L209 415V419.5H216.5V426.5H223.5V430.5H227.5V437.5L240 445L233.5 458V467L218.5 460.5V454L211 448V433H203.5L199.5 437.5L194.5 433V426.5H199.5Z" fill="#DDB99E"/>
<path opacity="0.4" d="M48.5 372.5L45.5 380L66 388H108V374.5H103H94V367.5L88 366.5L82.5 362.5L76.5 366.5H79L82.5 372.5V378H75L66 372.5L56.5 369.5L48.5 372.5Z" fill="#DDB99E"/>
<path opacity="0.4" fill-rule="evenodd" clip-rule="evenodd" d="M0.146459 279.487C0.091327 277.798 0.0516777 276.105 0.0276489 274.408C0.161348 274.164 0.420951 274 0.715969 274C1.14897 274 1.49999 273.649 1.49999 273.216V272.5C1.49999 271.948 1.9477 271.5 2.49999 271.5C3.05227 271.5 3.49999 271.052 3.49999 270.5V266.75C3.49999 266.06 2.94035 265.5 2.24999 265.5C1.55963 265.5 0.999989 264.94 0.999989 264.25V264C0.999989 263.172 1.67156 262.5 2.49999 262.5H4.24999C4.94035 262.5 5.49999 263.06 5.49999 263.75C5.49999 264.44 6.05963 265 6.74999 265H8.32841C9.07856 265 9.79798 264.702 10.3284 264.172L11.4816 263.018C11.8208 262.679 12.2458 262.439 12.7112 262.322L13.3345 262.166C14.6884 261.828 16 262.852 16 264.248C16 264.735 15.8342 265.207 15.5299 265.588L12.6492 269.188C12.2907 269.637 11.6367 269.709 11.1885 269.351C10.508 268.806 9.49999 269.291 9.49999 270.162V270.364C9.49999 270.991 10.0087 271.5 10.6361 271.5H44C44.2761 271.5 44.5 271.724 44.5 272C44.5 272.276 44.7238 272.5 45 272.5H52.5C53.3284 272.5 54 273.172 54 274C54 274.828 54.6716 275.5 55.5 275.5H56.5165C56.7976 275.5 57.0397 275.698 57.0948 275.974C57.2112 276.556 58.0171 276.621 58.2254 276.066L58.6669 274.888C58.8508 274.398 59.3977 274.149 59.8883 274.333L61.5349 274.951C62.4161 275.281 63 276.124 63 277.065C63 277.664 62.7621 278.238 62.3387 278.661L62.25 278.75C61.7698 279.23 61.5 279.882 61.5 280.561V286.75C61.5 287.164 61.8358 287.5 62.25 287.5C62.6642 287.5 63 287.836 63 288.25V292.211C63 293.199 63.8009 294 64.7889 294C65.5203 294 66.1781 294.445 66.4498 295.124L66.6021 295.505C66.8552 296.138 67.3663 296.633 68.0069 296.866L68.6186 297.089C70.7165 297.851 73.0213 296.675 73.6346 294.529L73.9684 293.36C74.2831 292.259 75.2896 291.5 76.4349 291.5H77.5831C78.3656 291.5 79 292.134 79 292.917C79 293.761 79.7341 294.418 80.5734 294.325L82.7959 294.078C83.1967 294.034 83.5 293.695 83.5 293.292C83.5 292.854 83.8544 292.5 84.2915 292.5H89C89.5523 292.5 90 292.948 90 293.5C90 294.052 90.4477 294.5 91 294.5H94.25C94.6642 294.5 95 294.836 95 295.25C95 295.664 95.3358 296 95.75 296H103.25C103.664 296 104 296.336 104 296.75C104 297.164 104.336 297.5 104.75 297.5H112C112.828 297.5 113.5 298.172 113.5 299C113.5 299.828 114.172 300.5 115 300.5H115.591C116.672 300.5 117.575 301.325 117.673 302.401L117.811 303.916C117.928 305.212 118.708 306.354 119.872 306.936L123.588 308.794C126.399 310.2 128.801 312.764 128.417 315.884C128.273 317.058 127.958 318.101 127.567 318.991C126.898 320.514 125.422 321.293 123.924 322.084C123.289 322.42 122.65 322.757 122.067 323.154C121.374 323.626 120.767 324.192 120.267 324.753C119.355 325.774 118.219 326.642 116.872 326.887L114.706 327.281C113.991 327.411 113.277 327.053 112.952 326.404C112.675 325.85 112.109 325.5 111.49 325.5H110.434C109.918 325.5 109.5 325.918 109.5 326.434C109.5 326.998 109.003 327.434 108.443 327.359L103.023 326.636C102.383 326.551 101.827 326.154 101.538 325.577C101.208 324.917 100.534 324.5 99.7961 324.5H98.5492C96.5286 324.5 94.8312 322.981 94.608 320.972L94.2436 317.692C94.0936 316.343 93.2128 315.185 91.952 314.681L91.644 314.558C91.5484 314.519 91.4583 314.469 91.3759 314.407C90.603 313.827 89.5 314.379 89.5 315.345V316.641C89.5 317.185 89.2567 317.7 88.8368 318.046L81.9684 323.702C81.3285 324.229 80.7933 324.872 80.3907 325.597L80.1191 326.086C79.1198 327.884 77.2238 329 75.1661 329H71.5C70.3954 329 69.5 329.895 69.5 331C69.5 332.105 68.6046 333 67.5 333H67.0251C66.3687 333 65.7392 332.739 65.2751 332.275L64.25 331.25C63.1295 330.129 61.5837 329.387 60.0436 329.76C58.3033 330.182 57.6209 331.016 57.5 331.5C57.2153 334.062 55.0499 336 52.4723 336H47.7041C46.2509 336 44.8138 335.695 43.4859 335.105L41.3789 334.168C41.2322 334.103 41.0381 334.06 40.8502 334.019C40.7181 333.99 40.5891 333.961 40.4818 333.926C39.8905 333.733 39.4294 333.222 38.9749 332.719C38.4196 332.104 37.8743 331.5 37.1141 331.5H35C34.4477 331.5 34 331.052 34 330.5C34 329.948 33.5523 329.5 33 329.5H22.4202C19.8776 329.5 17.4057 330.337 15.386 331.881L11.0509 335.196C10.3885 335.703 9.99999 336.489 9.99999 337.323C9.99999 338.221 9.55809 339.015 8.87994 339.501C4.3909 322.435 1.52751 304.709 0.465346 286.5H0.499989C0.776131 286.5 0.999989 286.724 0.999989 287C0.999989 287.276 1.22385 287.5 1.49999 287.5H2.04535C2.58601 287.5 3.03747 287.088 3.08642 286.549L3.38169 283.301C3.44521 282.603 2.89499 282 2.19329 282C1.53425 282 0.999989 281.466 0.999989 280.807V280.216C0.999989 279.821 0.679432 279.5 0.284008 279.5C0.236891 279.5 0.190911 279.495 0.146459 279.487Z" fill="#DDB99E"/>
<path opacity="0.4" fill-rule="evenodd" clip-rule="evenodd" d="M286.25 170H342.636C347.255 170 351 166.255 351 161.636C351 159.92 350.472 158.246 349.488 156.84L342.679 147.113C341.242 145.061 340.255 142.729 339.782 140.269L339.17 137.084C338.438 133.279 339.641 129.359 342.381 126.619C346.016 122.984 351.6 122.153 356.136 124.572L358.432 125.797C361.678 127.528 364.107 130.474 365.189 133.99L366.341 137.733C367.06 140.071 368.951 141.863 371.324 142.456C374.824 143.331 378.414 141.397 379.61 137.994L382.975 128.417C383.653 126.486 384 124.455 384 122.408V119.577C384 114.695 382.214 109.982 378.98 106.325L373.687 100.342C372.932 99.4885 371.848 99 370.709 99C368.836 99 367.218 100.306 366.822 102.136L363.578 117.14C363.526 117.379 363.5 117.624 363.5 117.869C363.5 120.837 360 122.42 357.771 120.459L352.745 116.036C351.617 115.043 350.869 113.689 350.63 112.205L348.881 101.361C348.634 99.8331 347.873 98.4355 346.723 97.4003C344.758 95.632 341.945 95.1666 339.515 96.2078L337.764 96.9584C334.785 98.2351 331.367 97.9499 328.64 96.1973L327.412 95.4074C326.475 94.8052 325.622 94.0805 324.877 93.2527L323.903 92.1697C322.319 90.4102 320.378 89.0092 318.209 88.0604C315.141 86.7181 312.55 84.4806 310.776 81.6409L309.209 79.134C309.038 78.8605 308.856 78.6105 308.676 78.3641C308.361 77.9315 308.054 77.5097 307.829 76.9904C305.894 72.5339 311.871 68.789 316.311 70.7615C317.667 71.3641 318.848 72.0464 319.789 72.6818C320.965 73.4757 322.223 74.1752 323.602 74.5095C329.97 76.0532 335.604 70.0921 333.703 63.8214L333.612 63.5194C333.21 62.1926 332.495 60.9818 331.527 59.9892L313.5 41.5L278.911 5.20264C276.614 2.79288 273.778 1.01949 270.677 5.72105e-05C270.618 1.9298e-05 270.559 0 270.5 0C239.654 0 210.015 5.16293 182.398 14.6718C181.698 18.7245 182.31 23.048 184.479 26.9755L192.5 41.5L204 61.5L206.437 66.576C208.615 71.1136 213.202 74 218.235 74C221.613 74 224.861 75.3065 227.298 77.6463L234.617 84.6722C235.537 85.5554 236.365 86.5299 237.125 87.5545C240.084 91.5471 242.976 94.7061 245.071 96.7724C246.314 97.999 247.825 98.8813 249.336 99.7639C249.715 99.9851 250.094 100.206 250.468 100.433C253.833 102.469 255.697 105.199 256.537 107.141C256.83 107.817 256.956 108.542 257.082 109.268C257.121 109.487 257.159 109.706 257.201 109.924C257.678 112.353 258.798 114.794 259.958 116.792C261.417 119.308 262.5 122.093 262.5 125.002V126.035C262.5 127.647 262.055 129.228 261.215 130.603L258.773 134.599C257.772 136.237 258.197 138.37 259.75 139.5C261.303 140.63 261.728 142.763 260.727 144.401L260.624 144.569C259.037 147.167 260.906 150.5 263.95 150.5H272C275.038 150.5 277.5 152.962 277.5 156V159.25C277.5 160.493 278.507 161.5 279.75 161.5C280.993 161.5 282 162.507 282 163.75V165.75C282 168.097 283.903 170 286.25 170Z" fill="#DDB99E"/>
<path opacity="0.4" fill-rule="evenodd" clip-rule="evenodd" d="M520 165.819C528.636 186.378 534.805 208.229 538.137 231.001C535.842 231.061 534 232.941 534 235.25V237.5C534 238.605 533.105 239.5 532 239.5C530.895 239.5 530 238.605 530 237.5V234C530 232.343 528.657 231 527 231C525.343 231 524 229.657 524 228V209.5C524 208.395 523.105 207.5 522 207.5C520.895 207.5 520 206.605 520 205.5V165.819ZM476.682 137.157L486.72 146.823C487.763 147.827 489.5 147.088 489.5 145.641C489.5 144.735 490.235 144 491.141 144H491.75C492.993 144 494 142.993 494 141.75V132.431C494 131.164 494.318 129.917 494.925 128.805L495.978 126.874C496.611 125.713 496.582 124.304 495.902 123.17C494.849 121.415 492.578 120.836 490.814 121.874L487.636 123.743C486.313 124.522 485.5 125.943 485.5 127.478C485.5 129.294 484.368 130.917 482.665 131.545L477.457 133.463C476.582 133.786 476 134.62 476 135.553C476 136.158 476.246 136.737 476.682 137.157Z" fill="#DDB99E"/>
<path opacity="0.4" fill-rule="evenodd" clip-rule="evenodd" d="M78 80.4631C83.7615 74.6274 89.7864 69.0524 96.0554 63.7574C97.2115 66.6203 99.2699 69.0878 101.993 70.7382C107.603 74.1382 114.796 73.3537 119.541 68.8242L129.892 58.9439C132.055 56.8796 132.683 53.6768 131.46 50.9486L131.128 50.2085C129.19 45.8848 132.353 41 137.091 41C138.646 41 140.15 41.5542 141.332 42.563L150.071 50.0166C154.181 53.5222 156.698 58.5412 157.05 63.9317L159.366 99.4381C159.454 100.799 159.814 102.128 160.424 103.348C162.951 108.403 160.903 114.549 155.848 117.076L152.021 118.989C147.105 121.447 144 126.472 144 131.968V149.305C144 150.764 144.16 152.219 144.476 153.643L146.091 160.91C146.679 163.557 148.154 165.924 150.272 167.617L154.239 170.792C157.15 173.12 157.635 177.362 155.326 180.288C153.377 182.756 149.986 183.56 147.137 182.23L143.264 180.423C139.587 178.707 137.56 174.701 138.356 170.722C139.049 167.254 137.599 163.707 134.675 161.719L131.361 159.465C128.54 157.547 125.145 156.659 121.746 156.95L116.629 157.389C112.047 157.782 107.785 159.896 104.699 163.306C101.675 166.649 100 170.996 100 175.504V184.5V192.088C100 196.779 95.4778 200.143 90.9845 198.795C90.3317 198.6 89.646 198.5 88.9644 198.5C81.9862 198.5 78.2223 190.184 82.9707 185.07L87.149 180.57C88.9816 178.597 90 176.003 90 173.31V140.955C90 138.021 89.3545 135.123 88.1092 132.466L84.2638 124.263C83.1292 121.842 82.9422 119.085 83.7395 116.534C84.5494 113.942 84.3432 111.139 83.1628 108.694L79.989 102.12C78.6799 99.4084 78 96.4361 78 93.425L78 80.4631Z" fill="#DDB99E"/>
<path opacity="0.4" d="M119.5 182.5H108.5V186.5L112.5 189.5V196.5H117V202H123.5V206.5H127L130.5 211V196.5L139 192.5V186.5H131.5V182.5V175H119.5V182.5Z" fill="#DDB99E"/>
<path d="M309.5 222L308.5 235C303.7 241.8 273 256.833 270 260C267.2 264 271 270.167 268 274" stroke="#FFFAF7" stroke-width="8"/>
<path d="M275 300L268 275" stroke="#FFFAF7" stroke-width="8"/>
<path d="M481.5 439.5L463.5 432.5C455.1 429.3 445 431.167 441 432.5C425.8 436.9 395 435.333 381.5 434C366.3 429.2 343.833 417 334.5 411.5C327.7 406.7 310.667 403.167 303 402C296.6 402 286.333 402 282 402C277.6 402 269.833 396.333 266.5 393.5C260.9 389.1 243.833 384.667 236 383C222.4 382.6 211 382.833 207 383C195.8 383 174.333 383 165 383C157 384.2 130 387.167 117.5 388.5C111.1 388.9 90.8333 388.667 81.5 388.5C79.5 388.5 70.6667 388.5 66.5 388.5C54.1 385.7 43 377.333 39 373.5C34.6 370.7 33.1667 364.667 33 362C24.6 358 16.5 355 13.5 354" stroke="#FFFAF7" stroke-width="8"/>
<path d="M478.5 98C476.1 100.8 474.833 106.833 474.5 109.5C474.9 119.9 472.667 130.167 471.5 134C465.1 142.4 457.167 155.833 454 161.5C452 169.9 449.833 179.333 449 183L445.5 194C444.7 196.4 442.5 196 441.5 195.5C438.3 194.3 428.5 195 424 195.5C417.2 198.3 405.167 203.333 400 205.5C395.2 207.5 388.667 212.333 386 214.5C383.2 217.3 375.167 224.333 371.5 227.5C369.5 229.5 368.667 231.333 368.5 232H365.5L359.5 240C356.7 242 351.333 244.5 349 245.5C347.4 245.9 342.333 246.667 340 247C336.8 249.8 324 256.833 318 260C310.4 264 301.167 268.667 297.5 270.5L287 271.5C283.8 271.5 276 271.5 272.5 271.5C269.7 271.5 266 275.167 264.5 277C262.1 282.2 256.5 289.833 254 293C251.6 296.6 250.333 301.167 250 303C249.6 306.6 245.833 311.5 244 313.5C242.8 316.7 232.833 333.167 228 341C226 343.8 222.167 346.833 220.5 348C219.3 350.8 221 353.833 222 355C223.6 357.8 226.667 362.833 228 365L218.5 373.5C216.9 375.9 213.833 381.167 212.5 383.5" stroke="#FFFAF7" stroke-width="8"/>
<path d="M542 285C536.8 278.6 523.5 275 517.5 274C492.3 280.4 470 284 462 285C454.4 285 442.5 290.333 437.5 293C426.3 295.8 402.167 295.833 391.5 295.5C370.7 295.5 343.833 290.167 333 287.5C320.6 285.5 296.5 280 286 277.5C276 276.7 254.5 271.5 245 269C228.2 264.6 202.667 259.167 192 257C174.4 255.8 157.333 253.833 151 253C145.4 249.4 130.667 244.167 124 242C108 236.8 92.6667 226.5 87 222C76.2 218.8 61.1667 211 55 207.5C48.2 205.9 38.8333 194.5 35 189C31 183 26.3333 163.5 24.5 154.5" stroke="#FFFAF7" stroke-width="8"/>
<path d="M516.5 382C509.7 380.4 499.333 379.333 495 379C483.8 381.4 473.667 384.333 470 385.5L443.5 379C438.7 379 434.833 381 433.5 382L415.5 379C409.1 376.6 366.167 374.667 345.5 374C337.9 374.4 328 379.5 324 382C320.4 384.8 318.833 390.167 318.5 392.5C318.5 396.9 318.5 403 318.5 405.5" stroke="#FFFAF7" stroke-width="8"/>
<path d="M155.5 26C155.5 38.4 157.167 46.5 158 49L159.5 64.5C159.5 70.5 160.833 78.6667 161.5 82L166 102.5L174 134L177.5 161C176.3 169 169.333 191.333 166 201.5C164.8 211.1 162.5 216.833 161.5 218.5C158.3 223.7 154.833 231.333 153.5 234.5C151.1 239.7 146.833 246 145 248.5C145 250.5 144 263.333 143.5 269.5C143.1 279.5 143.333 294 143.5 300L148.5 313L150.5 321.5L148.5 327C145.7 327.4 140.667 327.167 138.5 327C136.1 325.8 129.833 328.167 127 329.5C124.2 331.1 117.167 334.833 114 336.5L107.5 344L106.5 351L111 358.5V369.5V388" stroke="#FFFAF7" stroke-width="8"/>
<circle cx="268" cy="274" r="3.5" fill="#FFFAF7" stroke="#DDB99E"/>
<path d="M280.208 273.058C280.992 272.848 282.098 272.302 282.098 270.972C282.098 270.328 281.818 269.712 281.314 269.376C280.88 269.068 280.264 268.9 279.214 268.9H275.616V269.292C276.736 269.376 276.792 269.46 276.792 270.622V276.264C276.792 277.44 276.708 277.524 275.504 277.608V278H278.598C279.704 278 280.628 277.832 281.342 277.44C282.168 276.978 282.686 276.264 282.686 275.326C282.686 273.926 281.594 273.31 280.208 273.1V273.058ZM277.968 272.932V270.188C277.968 269.726 278.024 269.572 278.15 269.488C278.29 269.404 278.598 269.348 278.948 269.348C280.278 269.348 280.81 270.188 280.81 271.14C280.81 272.316 280.166 272.932 278.626 272.932H277.968ZM277.968 273.394H278.612C280.32 273.394 281.3 274.024 281.3 275.466C281.3 276.922 280.278 277.51 279.13 277.524C278.234 277.524 277.968 277.258 277.968 276.25V273.394ZM289.416 277.454L289.276 277.09C289.136 277.174 288.94 277.244 288.772 277.244C288.534 277.244 288.282 277.034 288.282 276.404V273.8C288.282 273.072 288.142 272.498 287.652 272.092C287.344 271.84 286.924 271.714 286.504 271.714C285.706 271.868 284.796 272.414 284.404 272.694C284.138 272.89 283.956 273.044 283.956 273.254C283.956 273.576 284.32 273.856 284.572 273.856C284.768 273.856 284.922 273.758 284.978 273.534C285.09 273.1 285.216 272.792 285.398 272.61C285.538 272.442 285.748 272.33 286.028 272.33C286.728 272.33 287.204 272.904 287.204 273.912V274.164C286.896 274.416 285.874 274.794 285.034 275.074C284.264 275.34 283.9 275.774 283.9 276.46C283.9 277.342 284.586 278.168 285.58 278.168C286 278.168 286.672 277.65 287.232 277.272C287.302 277.51 287.386 277.706 287.568 277.902C287.722 278.042 288.016 278.168 288.226 278.168L289.416 277.454ZM287.204 276.824C286.938 277.076 286.448 277.314 286.084 277.328C285.65 277.328 285.09 276.978 285.09 276.25C285.09 275.746 285.398 275.48 285.944 275.228C286.238 275.088 286.91 274.794 287.204 274.64V276.824ZM291.917 273.198V271.672C291.245 271.966 290.629 272.134 289.943 272.246V272.554C290.741 272.666 290.811 272.722 290.811 273.646V276.544C290.811 277.468 290.713 277.552 289.845 277.636V278H293.065V277.636C291.987 277.552 291.917 277.468 291.917 276.544V273.982C292.225 273.198 292.673 272.778 293.037 272.778C293.261 272.778 293.429 272.862 293.625 273.072C293.709 273.156 293.835 273.17 294.003 273.1C294.269 272.974 294.451 272.694 294.451 272.414C294.451 272.078 294.115 271.714 293.639 271.714C292.967 271.714 292.365 272.498 291.945 273.198H291.917ZM298.976 273.45C298.934 273.1 298.78 272.274 298.668 271.952C298.374 271.84 297.996 271.714 297.422 271.714C296.134 271.714 295.294 272.54 295.294 273.52C295.294 274.598 296.204 275.06 297.044 275.452C297.744 275.774 298.15 276.11 298.15 276.726C298.15 277.314 297.674 277.706 297.156 277.706C296.316 277.706 295.686 276.894 295.434 275.97L295.07 276.04C295.07 276.544 295.196 277.496 295.294 277.692C295.546 277.902 296.19 278.168 296.904 278.168C298.024 278.168 299.214 277.51 299.214 276.236C299.214 275.27 298.5 274.766 297.45 274.332C296.82 274.066 296.26 273.744 296.26 273.114C296.26 272.568 296.638 272.148 297.17 272.148C297.856 272.148 298.346 272.708 298.612 273.534L298.976 273.45ZM303.74 277.496L303.614 277.132C303.418 277.23 303.096 277.37 302.746 277.37C302.396 277.37 301.934 277.16 301.934 276.026V272.428H303.432C303.6 272.33 303.642 272.022 303.516 271.882H301.934V269.964L301.738 269.936L300.828 270.86V271.882H300.184L299.806 272.288L299.862 272.428H300.828V276.502C300.828 277.608 301.318 278.168 302.2 278.168C302.326 278.168 302.55 278.112 302.788 277.986L303.74 277.496ZM307.336 271.714C306.062 271.714 304.27 272.764 304.27 275.074C304.27 276.628 305.418 278.168 307.336 278.168C308.722 278.168 310.374 277.09 310.374 274.836C310.374 273.1 309.072 271.714 307.336 271.714ZM307.196 272.176C308.414 272.176 309.072 273.506 309.072 275.144C309.072 277.062 308.358 277.706 307.49 277.706C306.342 277.706 305.572 276.39 305.572 274.626C305.572 273.044 306.328 272.176 307.196 272.176ZM320.414 271.882H317.88V272.232C318.79 272.358 318.874 272.442 318.692 273.17C318.44 274.206 318.048 275.424 317.74 276.39H317.712C317.124 274.892 316.55 273.408 316.032 271.952H315.668C315.08 273.562 314.562 275.004 314.044 276.348H314.016C313.666 275.27 313.316 274.164 312.994 273.086C312.784 272.456 312.854 272.372 313.694 272.232V271.882H310.796V272.232C311.468 272.33 311.594 272.428 311.846 273.156C312.42 274.836 312.952 276.488 313.456 278.154H313.862C314.408 276.6 314.982 275.2 315.514 273.8C316.088 275.27 316.662 276.642 317.222 278.154H317.614C318.258 276.25 318.874 274.388 319.294 273.282C319.588 272.512 319.714 272.344 320.414 272.232V271.882Z" fill="#4A2C14"/>
<path d="M125.726 98.944C125.614 98.062 125.544 97.516 125.488 97.012C124.956 96.844 124.368 96.69 123.724 96.69C121.918 96.69 120.84 97.838 120.84 99.182C120.84 100.764 122.254 101.464 123.15 101.94C124.2 102.5 124.97 102.99 124.97 104.026C124.97 105.048 124.34 105.706 123.29 105.706C121.848 105.706 121.218 104.292 120.994 103.438L120.588 103.536C120.672 104.208 120.854 105.412 120.966 105.706C121.092 105.776 121.302 105.874 121.652 106C122.002 106.098 122.45 106.21 123.024 106.21C124.886 106.21 126.132 105.034 126.132 103.564C126.132 101.996 124.802 101.338 123.71 100.778C122.604 100.204 121.932 99.728 121.932 98.706C121.932 97.95 122.408 97.166 123.486 97.166C124.704 97.166 125.068 98.132 125.32 99.028L125.726 98.944ZM132.128 104.516C131.624 104.992 131.092 105.216 130.532 105.216C129.552 105.216 128.46 104.432 128.446 102.528C130.112 102.472 131.862 102.332 132.1 102.29C132.352 102.234 132.422 102.122 132.422 101.842C132.422 100.75 131.484 99.714 130.322 99.714C129.594 99.714 128.838 100.092 128.264 100.736C127.69 101.366 127.34 102.22 127.34 103.186C127.34 104.768 128.348 106.168 130.07 106.168C130.504 106.168 131.47 105.916 132.352 104.81L132.128 104.516ZM129.986 100.232C130.756 100.232 131.232 100.904 131.218 101.632C131.218 101.828 131.134 101.912 130.882 101.912C130.07 101.94 129.3 101.954 128.516 101.954C128.726 100.82 129.342 100.232 129.986 100.232ZM140.048 109.388V109.01C139.068 108.898 138.97 108.856 138.97 107.862V101.352C138.97 100.414 138.998 100.148 139.012 99.854L138.956 99.812C138.746 99.91 138.564 99.966 138.48 99.966C138.354 99.966 138.284 99.952 138.102 99.896C137.934 99.826 137.626 99.756 137.122 99.714C135.204 99.7 133.384 101.226 133.384 103.228C133.384 104.586 134.35 106.168 136.394 106.168L137.878 105.58V107.848C137.878 108.842 137.78 108.912 136.688 109.01V109.388H140.048ZM137.878 105.16C137.598 105.286 137.276 105.384 136.842 105.384C135.806 105.384 134.63 104.46 134.63 102.766C134.63 101.114 135.554 100.274 136.506 100.274C136.954 100.274 137.556 100.498 137.878 100.862V105.16ZM147.104 105.314L146.712 105.286C146.18 105.258 146.068 105.16 146.068 104.46V99.784C145.326 99.938 144.598 99.994 143.87 100.036V100.358C144.878 100.498 144.962 100.554 144.962 101.352V104.614C144.486 105.076 143.954 105.286 143.45 105.286C142.82 105.286 142.218 104.95 142.218 103.704V101.828C142.218 100.876 142.218 100.218 142.26 99.784C141.588 99.91 140.916 99.994 140.258 100.036V100.358C141.056 100.512 141.112 100.568 141.112 101.338V104.082C141.112 105.594 141.91 106.168 142.848 106.168C143.226 106.168 143.52 106.056 143.926 105.818C144.318 105.58 144.64 105.328 144.962 105.09V106.084L145.046 106.168C145.746 105.958 146.46 105.762 147.104 105.664V105.314ZM150.873 99.714C149.599 99.714 147.807 100.764 147.807 103.074C147.807 104.628 148.955 106.168 150.873 106.168C152.259 106.168 153.911 105.09 153.911 102.836C153.911 101.1 152.609 99.714 150.873 99.714ZM150.733 100.176C151.951 100.176 152.609 101.506 152.609 103.144C152.609 105.062 151.895 105.706 151.027 105.706C149.879 105.706 149.109 104.39 149.109 102.626C149.109 101.044 149.865 100.176 150.733 100.176ZM156.152 98.496C156.558 98.496 156.866 98.16 156.866 97.782C156.866 97.362 156.558 97.054 156.166 97.054C155.788 97.054 155.452 97.362 155.452 97.782C155.452 98.16 155.788 98.496 156.152 98.496ZM157.79 106V105.636C156.894 105.552 156.796 105.468 156.796 104.516V99.686C156.18 99.938 155.522 100.12 154.808 100.232V100.568C155.648 100.708 155.69 100.764 155.69 101.632V104.516C155.69 105.468 155.592 105.552 154.71 105.636V106H157.79ZM164.111 105.454L163.971 105.09C163.831 105.174 163.635 105.244 163.467 105.244C163.229 105.244 162.977 105.034 162.977 104.404V101.8C162.977 101.072 162.837 100.498 162.347 100.092C162.039 99.84 161.619 99.714 161.199 99.714C160.401 99.868 159.491 100.414 159.099 100.694C158.833 100.89 158.651 101.044 158.651 101.254C158.651 101.576 159.015 101.856 159.267 101.856C159.463 101.856 159.617 101.758 159.673 101.534C159.785 101.1 159.911 100.792 160.093 100.61C160.233 100.442 160.443 100.33 160.723 100.33C161.423 100.33 161.899 100.904 161.899 101.912V102.164C161.591 102.416 160.569 102.794 159.729 103.074C158.959 103.34 158.595 103.774 158.595 104.46C158.595 105.342 159.281 106.168 160.275 106.168C160.695 106.168 161.367 105.65 161.927 105.272C161.997 105.51 162.081 105.706 162.263 105.902C162.417 106.042 162.711 106.168 162.921 106.168L164.111 105.454ZM161.899 104.824C161.633 105.076 161.143 105.314 160.779 105.328C160.345 105.328 159.785 104.978 159.785 104.25C159.785 103.746 160.093 103.48 160.639 103.228C160.933 103.088 161.605 102.794 161.899 102.64V104.824ZM130.066 113.9H126.762V114.292C127.728 114.348 128.064 114.53 128.134 115.16C128.176 115.552 128.232 116.196 128.232 117.484V120.928H128.19L122.352 113.9H120.28V114.292C120.938 114.348 121.246 114.46 121.526 114.81C121.778 115.146 121.806 115.202 121.806 116.224V119.304C121.806 120.592 121.764 121.264 121.722 121.698C121.652 122.384 121.302 122.566 120.49 122.608V123H123.808V122.608C122.856 122.552 122.534 122.384 122.464 121.67C122.422 121.264 122.38 120.592 122.38 119.304V115.79H122.408L128.372 123.126H128.806V117.484C128.806 116.182 128.834 115.552 128.89 115.132C128.946 114.516 129.282 114.334 130.066 114.292V113.9ZM136.097 122.454L135.957 122.09C135.817 122.174 135.621 122.244 135.453 122.244C135.215 122.244 134.963 122.034 134.963 121.404V118.8C134.963 118.072 134.823 117.498 134.333 117.092C134.025 116.84 133.605 116.714 133.185 116.714C132.387 116.868 131.477 117.414 131.085 117.694C130.819 117.89 130.637 118.044 130.637 118.254C130.637 118.576 131.001 118.856 131.253 118.856C131.449 118.856 131.603 118.758 131.659 118.534C131.771 118.1 131.897 117.792 132.079 117.61C132.219 117.442 132.429 117.33 132.709 117.33C133.409 117.33 133.885 117.904 133.885 118.912V119.164C133.577 119.416 132.555 119.794 131.715 120.074C130.945 120.34 130.581 120.774 130.581 121.46C130.581 122.342 131.267 123.168 132.261 123.168C132.681 123.168 133.353 122.65 133.913 122.272C133.983 122.51 134.067 122.706 134.249 122.902C134.403 123.042 134.697 123.168 134.907 123.168L136.097 122.454ZM133.885 121.824C133.619 122.076 133.129 122.314 132.765 122.328C132.331 122.328 131.771 121.978 131.771 121.25C131.771 120.746 132.079 120.48 132.625 120.228C132.919 120.088 133.591 119.794 133.885 119.64V121.824ZM140.1 122.496L139.974 122.132C139.778 122.23 139.456 122.37 139.106 122.37C138.756 122.37 138.294 122.16 138.294 121.026V117.428H139.792C139.96 117.33 140.002 117.022 139.876 116.882H138.294V114.964L138.098 114.936L137.188 115.86V116.882H136.544L136.166 117.288L136.222 117.428H137.188V121.502C137.188 122.608 137.678 123.168 138.56 123.168C138.686 123.168 138.91 123.112 139.148 122.986L140.1 122.496ZM142.152 115.496C142.558 115.496 142.866 115.16 142.866 114.782C142.866 114.362 142.558 114.054 142.166 114.054C141.788 114.054 141.452 114.362 141.452 114.782C141.452 115.16 141.788 115.496 142.152 115.496ZM143.79 123V122.636C142.894 122.552 142.796 122.468 142.796 121.516V116.686C142.18 116.938 141.522 117.12 140.808 117.232V117.568C141.648 117.708 141.69 117.764 141.69 118.632V121.516C141.69 122.468 141.592 122.552 140.71 122.636V123H143.79ZM147.592 116.714C146.318 116.714 144.526 117.764 144.526 120.074C144.526 121.628 145.674 123.168 147.592 123.168C148.978 123.168 150.63 122.09 150.63 119.836C150.63 118.1 149.328 116.714 147.592 116.714ZM147.452 117.176C148.67 117.176 149.328 118.506 149.328 120.144C149.328 122.062 148.614 122.706 147.746 122.706C146.598 122.706 145.828 121.39 145.828 119.626C145.828 118.044 146.584 117.176 147.452 117.176ZM158.302 123V122.636C157.49 122.552 157.42 122.496 157.42 121.544V118.842C157.42 117.484 156.72 116.714 155.614 116.714C155.208 116.714 154.844 116.882 154.452 117.134C154.102 117.372 153.794 117.582 153.514 117.792V116.672C152.898 116.952 152.24 117.12 151.568 117.246V117.568C152.324 117.708 152.408 117.75 152.408 118.646V121.544C152.408 122.468 152.338 122.538 151.386 122.636V123H154.424V122.636C153.598 122.552 153.514 122.496 153.514 121.544V118.254C153.934 117.89 154.48 117.54 155.04 117.54C155.978 117.54 156.314 118.17 156.314 119.136V121.474C156.314 122.44 156.216 122.552 155.39 122.636V123H158.302ZM164.658 122.454L164.518 122.09C164.378 122.174 164.182 122.244 164.014 122.244C163.776 122.244 163.524 122.034 163.524 121.404V118.8C163.524 118.072 163.384 117.498 162.894 117.092C162.586 116.84 162.166 116.714 161.746 116.714C160.948 116.868 160.038 117.414 159.646 117.694C159.38 117.89 159.198 118.044 159.198 118.254C159.198 118.576 159.562 118.856 159.814 118.856C160.01 118.856 160.164 118.758 160.22 118.534C160.332 118.1 160.458 117.792 160.64 117.61C160.78 117.442 160.99 117.33 161.27 117.33C161.97 117.33 162.446 117.904 162.446 118.912V119.164C162.138 119.416 161.116 119.794 160.276 120.074C159.506 120.34 159.142 120.774 159.142 121.46C159.142 122.342 159.828 123.168 160.822 123.168C161.242 123.168 161.914 122.65 162.474 122.272C162.544 122.51 162.628 122.706 162.81 122.902C162.964 123.042 163.258 123.168 163.468 123.168L164.658 122.454ZM162.446 121.824C162.18 122.076 161.69 122.314 161.326 122.328C160.892 122.328 160.332 121.978 160.332 121.25C160.332 120.746 160.64 120.48 161.186 120.228C161.48 120.088 162.152 119.794 162.446 119.64V121.824ZM168.148 123V122.636C167.252 122.552 167.14 122.468 167.14 121.544V113.032C166.664 113.2 165.796 113.438 165.068 113.522V113.858C165.95 113.928 166.034 113.97 166.034 114.922V121.544C166.034 122.468 165.908 122.552 165.026 122.636V123H168.148ZM126.902 132.958C126.832 132.3 126.762 131.404 126.762 130.9H120.602V131.292C121.68 131.376 121.792 131.446 121.792 132.664V138.236C121.792 139.44 121.68 139.524 120.56 139.608V140H124.368V139.608C123.094 139.524 122.982 139.44 122.982 138.236V135.702H124.424C125.698 135.702 125.754 135.87 125.936 136.822H126.328V134.134H125.936C125.754 135.03 125.698 135.156 124.424 135.156H122.982V131.824C122.982 131.418 123.024 131.39 123.43 131.39H124.494C125.558 131.39 125.866 131.502 126.09 131.894C126.286 132.188 126.37 132.454 126.482 133.014L126.902 132.958ZM130.734 133.714C129.46 133.714 127.668 134.764 127.668 137.074C127.668 138.628 128.816 140.168 130.734 140.168C132.12 140.168 133.772 139.09 133.772 136.836C133.772 135.1 132.47 133.714 130.734 133.714ZM130.594 134.176C131.812 134.176 132.47 135.506 132.47 137.144C132.47 139.062 131.756 139.706 130.888 139.706C129.74 139.706 128.97 138.39 128.97 136.626C128.97 135.044 129.726 134.176 130.594 134.176ZM136.657 135.198V133.672C135.985 133.966 135.369 134.134 134.683 134.246V134.554C135.481 134.666 135.551 134.722 135.551 135.646V138.544C135.551 139.468 135.453 139.552 134.585 139.636V140H137.805V139.636C136.727 139.552 136.657 139.468 136.657 138.544V135.982C136.965 135.198 137.413 134.778 137.777 134.778C138.001 134.778 138.169 134.862 138.365 135.072C138.449 135.156 138.575 135.17 138.743 135.1C139.009 134.974 139.191 134.694 139.191 134.414C139.191 134.078 138.855 133.714 138.379 133.714C137.707 133.714 137.105 134.498 136.685 135.198H136.657ZM144.447 138.516C143.943 138.992 143.411 139.216 142.851 139.216C141.871 139.216 140.779 138.432 140.765 136.528C142.431 136.472 144.181 136.332 144.419 136.29C144.671 136.234 144.741 136.122 144.741 135.842C144.741 134.75 143.803 133.714 142.641 133.714C141.913 133.714 141.157 134.092 140.583 134.736C140.009 135.366 139.659 136.22 139.659 137.186C139.659 138.768 140.667 140.168 142.389 140.168C142.823 140.168 143.789 139.916 144.671 138.81L144.447 138.516ZM142.305 134.232C143.075 134.232 143.551 134.904 143.537 135.632C143.537 135.828 143.453 135.912 143.201 135.912C142.389 135.94 141.619 135.954 140.835 135.954C141.045 134.82 141.661 134.232 142.305 134.232ZM149.568 135.45C149.526 135.1 149.372 134.274 149.26 133.952C148.966 133.84 148.588 133.714 148.014 133.714C146.726 133.714 145.886 134.54 145.886 135.52C145.886 136.598 146.796 137.06 147.636 137.452C148.336 137.774 148.742 138.11 148.742 138.726C148.742 139.314 148.266 139.706 147.748 139.706C146.908 139.706 146.278 138.894 146.026 137.97L145.662 138.04C145.662 138.544 145.788 139.496 145.886 139.692C146.138 139.902 146.782 140.168 147.496 140.168C148.616 140.168 149.806 139.51 149.806 138.236C149.806 137.27 149.092 136.766 148.042 136.332C147.412 136.066 146.852 135.744 146.852 135.114C146.852 134.568 147.23 134.148 147.762 134.148C148.448 134.148 148.938 134.708 149.204 135.534L149.568 135.45ZM154.332 139.496L154.206 139.132C154.01 139.23 153.688 139.37 153.338 139.37C152.988 139.37 152.526 139.16 152.526 138.026V134.428H154.024C154.192 134.33 154.234 134.022 154.108 133.882H152.526V131.964L152.33 131.936L151.42 132.86V133.882H150.776L150.398 134.288L150.454 134.428H151.42V138.502C151.42 139.608 151.91 140.168 152.792 140.168C152.918 140.168 153.142 140.112 153.38 139.986L154.332 139.496Z" fill="#4A2C14"/>
<circle cx="378" cy="222" r="3.5" fill="#FFFAF7" stroke="#DDB99E"/>
<path d="M390.208 221.058C390.992 220.848 392.098 220.302 392.098 218.972C392.098 218.328 391.818 217.712 391.314 217.376C390.88 217.068 390.264 216.9 389.214 216.9H385.616V217.292C386.736 217.376 386.792 217.46 386.792 218.622V224.264C386.792 225.44 386.708 225.524 385.504 225.608V226H388.598C389.704 226 390.628 225.832 391.342 225.44C392.168 224.978 392.686 224.264 392.686 223.326C392.686 221.926 391.594 221.31 390.208 221.1V221.058ZM387.968 220.932V218.188C387.968 217.726 388.024 217.572 388.15 217.488C388.29 217.404 388.598 217.348 388.948 217.348C390.278 217.348 390.81 218.188 390.81 219.14C390.81 220.316 390.166 220.932 388.626 220.932H387.968ZM387.968 221.394H388.612C390.32 221.394 391.3 222.024 391.3 223.466C391.3 224.922 390.278 225.51 389.13 225.524C388.234 225.524 387.968 225.258 387.968 224.25V221.394ZM399.416 225.454L399.276 225.09C399.136 225.174 398.94 225.244 398.772 225.244C398.534 225.244 398.282 225.034 398.282 224.404V221.8C398.282 221.072 398.142 220.498 397.652 220.092C397.344 219.84 396.924 219.714 396.504 219.714C395.706 219.868 394.796 220.414 394.404 220.694C394.138 220.89 393.956 221.044 393.956 221.254C393.956 221.576 394.32 221.856 394.572 221.856C394.768 221.856 394.922 221.758 394.978 221.534C395.09 221.1 395.216 220.792 395.398 220.61C395.538 220.442 395.748 220.33 396.028 220.33C396.728 220.33 397.204 220.904 397.204 221.912V222.164C396.896 222.416 395.874 222.794 395.034 223.074C394.264 223.34 393.9 223.774 393.9 224.46C393.9 225.342 394.586 226.168 395.58 226.168C396 226.168 396.672 225.65 397.232 225.272C397.302 225.51 397.386 225.706 397.568 225.902C397.722 226.042 398.016 226.168 398.226 226.168L399.416 225.454ZM397.204 224.824C396.938 225.076 396.448 225.314 396.084 225.328C395.65 225.328 395.09 224.978 395.09 224.25C395.09 223.746 395.398 223.48 395.944 223.228C396.238 223.088 396.91 222.794 397.204 222.64V224.824ZM406.756 226V225.636C406.224 225.608 405.86 225.398 405.356 224.866C404.88 224.376 403.466 222.724 403.186 222.304C403.788 221.604 404.04 221.324 404.39 220.974C404.936 220.456 405.23 220.316 406.196 220.148V219.798L403.34 219.924V220.288C403.998 220.358 404.04 220.47 403.76 220.904C403.494 221.282 403.074 221.828 402.766 222.136C402.556 222.36 402.304 222.542 401.884 222.626V216.032C401.338 216.214 400.54 216.452 399.868 216.522V216.844C400.722 216.928 400.792 216.998 400.792 217.922V224.544C400.792 225.44 400.708 225.552 399.77 225.636V226H402.906V225.636C402.01 225.552 401.884 225.468 401.884 224.544V222.99C401.982 222.962 402.052 222.948 402.108 222.948C402.234 222.948 402.36 223.018 402.542 223.256C403.312 224.194 404.194 225.314 404.838 226.028L406.756 226ZM411.702 224.516C411.198 224.992 410.666 225.216 410.106 225.216C409.126 225.216 408.034 224.432 408.02 222.528C409.686 222.472 411.436 222.332 411.674 222.29C411.926 222.234 411.996 222.122 411.996 221.842C411.996 220.75 411.058 219.714 409.896 219.714C409.168 219.714 408.412 220.092 407.838 220.736C407.264 221.366 406.914 222.22 406.914 223.186C406.914 224.768 407.922 226.168 409.644 226.168C410.078 226.168 411.044 225.916 411.926 224.81L411.702 224.516ZM409.56 220.232C410.33 220.232 410.806 220.904 410.792 221.632C410.792 221.828 410.708 221.912 410.456 221.912C409.644 221.94 408.874 221.954 408.09 221.954C408.3 220.82 408.916 220.232 409.56 220.232ZM414.878 221.198V219.672C414.206 219.966 413.59 220.134 412.904 220.246V220.554C413.702 220.666 413.772 220.722 413.772 221.646V224.544C413.772 225.468 413.674 225.552 412.806 225.636V226H416.026V225.636C414.948 225.552 414.878 225.468 414.878 224.544V221.982C415.186 221.198 415.634 220.778 415.998 220.778C416.222 220.778 416.39 220.862 416.586 221.072C416.67 221.156 416.796 221.17 416.964 221.1C417.23 220.974 417.412 220.694 417.412 220.414C417.412 220.078 417.076 219.714 416.6 219.714C415.928 219.714 415.326 220.498 414.906 221.198H414.878Z" fill="#4A2C14"/>
<circle cx="309" cy="222" r="3.5" fill="#FFFAF7" stroke="#DDB99E"/>
<path d="M322.902 211.958C322.832 211.3 322.762 210.404 322.762 209.9H316.602V210.292C317.68 210.376 317.792 210.446 317.792 211.664V217.236C317.792 218.44 317.68 218.524 316.56 218.608V219H320.368V218.608C319.094 218.524 318.982 218.44 318.982 217.236V214.702H320.424C321.698 214.702 321.754 214.87 321.936 215.822H322.328V213.134H321.936C321.754 214.03 321.698 214.156 320.424 214.156H318.982V210.824C318.982 210.418 319.024 210.39 319.43 210.39H320.494C321.558 210.39 321.866 210.502 322.09 210.894C322.286 211.188 322.37 211.454 322.482 212.014L322.902 211.958ZM326.734 212.714C325.46 212.714 323.668 213.764 323.668 216.074C323.668 217.628 324.816 219.168 326.734 219.168C328.12 219.168 329.772 218.09 329.772 215.836C329.772 214.1 328.47 212.714 326.734 212.714ZM326.594 213.176C327.812 213.176 328.47 214.506 328.47 216.144C328.47 218.062 327.756 218.706 326.888 218.706C325.74 218.706 324.97 217.39 324.97 215.626C324.97 214.044 325.726 213.176 326.594 213.176ZM332.657 214.198V212.672C331.985 212.966 331.369 213.134 330.683 213.246V213.554C331.481 213.666 331.551 213.722 331.551 214.646V217.544C331.551 218.468 331.453 218.552 330.585 218.636V219H333.805V218.636C332.727 218.552 332.657 218.468 332.657 217.544V214.982C332.965 214.198 333.413 213.778 333.777 213.778C334.001 213.778 334.169 213.862 334.365 214.072C334.449 214.156 334.575 214.17 334.743 214.1C335.009 213.974 335.191 213.694 335.191 213.414C335.191 213.078 334.855 212.714 334.379 212.714C333.707 212.714 333.105 213.498 332.685 214.198H332.657ZM339.627 218.496L339.501 218.132C339.305 218.23 338.983 218.37 338.633 218.37C338.283 218.37 337.821 218.16 337.821 217.026V213.428H339.319C339.487 213.33 339.529 213.022 339.403 212.882H337.821V210.964L337.625 210.936L336.715 211.86V212.882H336.071L335.693 213.288L335.749 213.428H336.715V217.502C336.715 218.608 337.205 219.168 338.087 219.168C338.213 219.168 338.437 219.112 338.675 218.986L339.627 218.496ZM320.242 232V231.608C319.094 231.524 318.982 231.454 318.982 230.25V224.65C318.982 223.46 319.094 223.376 320.242 223.292V222.9H316.532V223.292C317.68 223.376 317.792 223.46 317.792 224.65V230.25C317.792 231.44 317.68 231.524 316.532 231.608V232H320.242ZM323.087 227.198V225.672C322.415 225.966 321.799 226.134 321.113 226.246V226.554C321.911 226.666 321.981 226.722 321.981 227.646V230.544C321.981 231.468 321.883 231.552 321.015 231.636V232H324.235V231.636C323.157 231.552 323.087 231.468 323.087 230.544V227.982C323.395 227.198 323.843 226.778 324.207 226.778C324.431 226.778 324.599 226.862 324.795 227.072C324.879 227.156 325.005 227.17 325.173 227.1C325.439 226.974 325.621 226.694 325.621 226.414C325.621 226.078 325.285 225.714 324.809 225.714C324.137 225.714 323.535 226.498 323.115 227.198H323.087ZM335.902 225.882H333.368V226.232C334.278 226.358 334.362 226.442 334.18 227.17C333.928 228.206 333.536 229.424 333.228 230.39H333.2C332.612 228.892 332.038 227.408 331.52 225.952H331.156C330.568 227.562 330.05 229.004 329.532 230.348H329.504C329.154 229.27 328.804 228.164 328.482 227.086C328.272 226.456 328.342 226.372 329.182 226.232V225.882H326.284V226.232C326.956 226.33 327.082 226.428 327.334 227.156C327.908 228.836 328.44 230.488 328.944 232.154H329.35C329.896 230.6 330.47 229.2 331.002 227.8C331.576 229.27 332.15 230.642 332.71 232.154H333.102C333.746 230.25 334.362 228.388 334.782 227.282C335.076 226.512 335.202 226.344 335.902 226.232V225.882ZM337.673 224.496C338.079 224.496 338.387 224.16 338.387 223.782C338.387 223.362 338.079 223.054 337.687 223.054C337.309 223.054 336.973 223.362 336.973 223.782C336.973 224.16 337.309 224.496 337.673 224.496ZM339.311 232V231.636C338.415 231.552 338.317 231.468 338.317 230.516V225.686C337.701 225.938 337.043 226.12 336.329 226.232V226.568C337.169 226.708 337.211 226.764 337.211 227.632V230.516C337.211 231.468 337.113 231.552 336.231 231.636V232H339.311ZM346.851 232V231.636C346.039 231.552 345.969 231.496 345.969 230.544V227.842C345.969 226.484 345.269 225.714 344.163 225.714C343.757 225.714 343.393 225.882 343.001 226.134C342.651 226.372 342.343 226.582 342.063 226.792V225.672C341.447 225.952 340.789 226.12 340.117 226.246V226.568C340.873 226.708 340.957 226.75 340.957 227.646V230.544C340.957 231.468 340.887 231.538 339.935 231.636V232H342.973V231.636C342.147 231.552 342.063 231.496 342.063 230.544V227.254C342.483 226.89 343.029 226.54 343.589 226.54C344.527 226.54 344.863 227.17 344.863 228.136V230.474C344.863 231.44 344.765 231.552 343.939 231.636V232H346.851Z" fill="#4A2C14"/>
<circle cx="275" cy="299" r="3.5" fill="#FFFAF7" stroke="#DDB99E"/>
<path d="M292.066 293.9H288.762V294.292C289.728 294.348 290.064 294.53 290.134 295.16C290.176 295.552 290.232 296.196 290.232 297.484V300.928H290.19L284.352 293.9H282.28V294.292C282.938 294.348 283.246 294.46 283.526 294.81C283.778 295.146 283.806 295.202 283.806 296.224V299.304C283.806 300.592 283.764 301.264 283.722 301.698C283.652 302.384 283.302 302.566 282.49 302.608V303H285.808V302.608C284.856 302.552 284.534 302.384 284.464 301.67C284.422 301.264 284.38 300.592 284.38 299.304V295.79H284.408L290.372 303.126H290.806V297.484C290.806 296.182 290.834 295.552 290.89 295.132C290.946 294.516 291.282 294.334 292.066 294.292V293.9ZM297.355 301.516C296.851 301.992 296.319 302.216 295.759 302.216C294.779 302.216 293.687 301.432 293.673 299.528C295.339 299.472 297.089 299.332 297.327 299.29C297.579 299.234 297.649 299.122 297.649 298.842C297.649 297.75 296.711 296.714 295.549 296.714C294.821 296.714 294.065 297.092 293.491 297.736C292.917 298.366 292.567 299.22 292.567 300.186C292.567 301.768 293.575 303.168 295.297 303.168C295.731 303.168 296.697 302.916 297.579 301.81L297.355 301.516ZM295.213 297.232C295.983 297.232 296.459 297.904 296.445 298.632C296.445 298.828 296.361 298.912 296.109 298.912C295.297 298.94 294.527 298.954 293.743 298.954C293.953 297.82 294.569 297.232 295.213 297.232ZM307.849 296.882H305.315V297.232C306.225 297.358 306.309 297.442 306.127 298.17C305.875 299.206 305.483 300.424 305.175 301.39H305.147C304.559 299.892 303.985 298.408 303.467 296.952H303.103C302.515 298.562 301.997 300.004 301.479 301.348H301.451C301.101 300.27 300.751 299.164 300.429 298.086C300.219 297.456 300.289 297.372 301.129 297.232V296.882H298.231V297.232C298.903 297.33 299.029 297.428 299.281 298.156C299.855 299.836 300.387 301.488 300.891 303.154H301.297C301.843 301.6 302.417 300.2 302.949 298.8C303.523 300.27 304.097 301.642 304.657 303.154H305.049C305.693 301.25 306.309 299.388 306.729 298.282C307.023 297.512 307.149 297.344 307.849 297.232V296.882ZM315.103 293.9H311.477V294.292C312.611 294.376 312.723 294.474 312.723 295.65V300.424C312.723 301.6 312.695 302.412 312.569 303.084C312.429 303.882 312.009 304.526 311.225 304.918L311.407 305.31C311.757 305.198 312.233 304.932 312.709 304.498C313.633 303.644 313.913 302.678 313.913 300.886V295.65C313.913 294.474 314.025 294.376 315.103 294.292V293.9ZM321.134 302.454L320.994 302.09C320.854 302.174 320.658 302.244 320.49 302.244C320.252 302.244 320 302.034 320 301.404V298.8C320 298.072 319.86 297.498 319.37 297.092C319.062 296.84 318.642 296.714 318.222 296.714C317.424 296.868 316.514 297.414 316.122 297.694C315.856 297.89 315.674 298.044 315.674 298.254C315.674 298.576 316.038 298.856 316.29 298.856C316.486 298.856 316.64 298.758 316.696 298.534C316.808 298.1 316.934 297.792 317.116 297.61C317.256 297.442 317.466 297.33 317.746 297.33C318.446 297.33 318.922 297.904 318.922 298.912V299.164C318.614 299.416 317.592 299.794 316.752 300.074C315.982 300.34 315.618 300.774 315.618 301.46C315.618 302.342 316.304 303.168 317.298 303.168C317.718 303.168 318.39 302.65 318.95 302.272C319.02 302.51 319.104 302.706 319.286 302.902C319.44 303.042 319.734 303.168 319.944 303.168L321.134 302.454ZM318.922 301.824C318.656 302.076 318.166 302.314 317.802 302.328C317.368 302.328 316.808 301.978 316.808 301.25C316.808 300.746 317.116 300.48 317.662 300.228C317.956 300.088 318.628 299.794 318.922 299.64V301.824ZM326.699 301.446C326.055 302.048 325.593 302.216 324.991 302.216C324.207 302.216 322.877 301.572 322.877 299.626C322.877 298.156 323.689 297.386 324.613 297.386C325.103 297.386 325.593 297.568 326.013 297.96C326.139 298.072 326.209 298.114 326.279 298.114C326.433 298.114 326.741 297.806 326.741 297.512C326.741 297.358 326.699 297.232 326.517 297.078C326.293 296.896 325.831 296.714 325.271 296.714C324.725 296.714 323.885 296.938 323.157 297.498C322.219 298.226 321.757 299.164 321.757 300.242C321.757 301.74 322.793 303.168 324.557 303.168C325.383 303.168 326.321 302.552 326.937 301.74L326.699 301.446ZM334.245 303V302.636C333.713 302.608 333.349 302.398 332.845 301.866C332.369 301.376 330.955 299.724 330.675 299.304C331.277 298.604 331.529 298.324 331.879 297.974C332.425 297.456 332.719 297.316 333.685 297.148V296.798L330.829 296.924V297.288C331.487 297.358 331.529 297.47 331.249 297.904C330.983 298.282 330.562 298.828 330.255 299.136C330.045 299.36 329.793 299.542 329.373 299.626V293.032C328.827 293.214 328.029 293.452 327.357 293.522V293.844C328.211 293.928 328.281 293.998 328.281 294.922V301.544C328.281 302.44 328.197 302.552 327.259 302.636V303H330.395V302.636C329.499 302.552 329.373 302.468 329.373 301.544V299.99C329.471 299.962 329.541 299.948 329.597 299.948C329.723 299.948 329.849 300.018 330.031 300.256C330.801 301.194 331.683 302.314 332.327 303.028L334.245 303ZM345.776 300.536C345.076 301.936 344.32 302.706 342.892 302.706C340.764 302.706 339.224 300.914 339.224 298.296C339.224 296.168 340.47 294.194 342.808 294.194C344.32 294.194 345.16 294.796 345.524 296.28L345.944 296.182C345.86 295.426 345.776 294.866 345.664 294.068C345.272 293.998 344.32 293.69 343.186 293.69C340.064 293.69 337.796 295.636 337.796 298.576C337.796 300.802 339.322 303.21 342.808 303.21C343.816 303.21 344.992 302.93 345.384 302.832C345.636 302.37 345.986 301.334 346.182 300.69L345.776 300.536ZM348.38 295.496C348.786 295.496 349.094 295.16 349.094 294.782C349.094 294.362 348.786 294.054 348.394 294.054C348.016 294.054 347.68 294.362 347.68 294.782C347.68 295.16 348.016 295.496 348.38 295.496ZM350.018 303V302.636C349.122 302.552 349.024 302.468 349.024 301.516V296.686C348.408 296.938 347.75 297.12 347.036 297.232V297.568C347.876 297.708 347.918 297.764 347.918 298.632V301.516C347.918 302.468 347.82 302.552 346.938 302.636V303H350.018ZM354.244 302.496L354.118 302.132C353.922 302.23 353.6 302.37 353.25 302.37C352.9 302.37 352.438 302.16 352.438 301.026V297.428H353.936C354.104 297.33 354.146 297.022 354.02 296.882H352.438V294.964L352.242 294.936L351.332 295.86V296.882H350.688L350.31 297.288L350.366 297.428H351.332V301.502C351.332 302.608 351.822 303.168 352.704 303.168C352.83 303.168 353.054 303.112 353.292 302.986L354.244 302.496ZM361.071 296.882H358.537V297.232C359.335 297.344 359.433 297.498 359.265 298.03C358.971 298.912 358.369 300.564 357.977 301.516L356.703 298.002C356.521 297.484 356.591 297.344 357.235 297.232V296.882H354.393V297.232C355.163 297.344 355.303 297.526 355.597 298.296C356.017 299.29 356.647 300.984 357.207 302.58C357.291 302.818 357.291 303 357.221 303.21C357.165 303.392 357.053 303.686 356.787 304.176C356.465 304.792 356.185 305.142 355.751 305.422C355.513 305.576 355.387 305.702 355.387 305.926C355.387 306.262 355.793 306.598 356.185 306.598C356.381 306.598 356.563 306.528 356.633 306.262C356.829 305.506 357.137 304.708 358.075 302.468C359.041 300.158 359.475 298.996 359.825 298.254C360.203 297.456 360.329 297.344 361.071 297.232V296.882Z" fill="#4A2C14"/>
<path d="M406.242 392.9H402.616V393.292C403.75 393.376 403.862 393.474 403.862 394.65V399.424C403.862 400.6 403.834 401.412 403.708 402.084C403.568 402.882 403.148 403.526 402.364 403.918L402.546 404.31C402.896 404.198 403.372 403.932 403.848 403.498C404.772 402.644 405.052 401.678 405.052 399.886V394.65C405.052 393.474 405.164 393.376 406.242 393.292V392.9ZM409.891 395.714C408.617 395.714 406.825 396.764 406.825 399.074C406.825 400.628 407.973 402.168 409.891 402.168C411.277 402.168 412.929 401.09 412.929 398.836C412.929 397.1 411.627 395.714 409.891 395.714ZM409.751 396.176C410.969 396.176 411.627 397.506 411.627 399.144C411.627 401.062 410.913 401.706 410.045 401.706C408.897 401.706 408.127 400.39 408.127 398.626C408.127 397.044 408.883 396.176 409.751 396.176ZM417.923 397.45C417.881 397.1 417.727 396.274 417.615 395.952C417.321 395.84 416.943 395.714 416.369 395.714C415.081 395.714 414.241 396.54 414.241 397.52C414.241 398.598 415.151 399.06 415.991 399.452C416.691 399.774 417.097 400.11 417.097 400.726C417.097 401.314 416.621 401.706 416.103 401.706C415.263 401.706 414.633 400.894 414.381 399.97L414.017 400.04C414.017 400.544 414.143 401.496 414.241 401.692C414.493 401.902 415.137 402.168 415.851 402.168C416.971 402.168 418.161 401.51 418.161 400.236C418.161 399.27 417.447 398.766 416.397 398.332C415.767 398.066 415.207 397.744 415.207 397.114C415.207 396.568 415.585 396.148 416.117 396.148C416.803 396.148 417.293 396.708 417.559 397.534L417.923 397.45ZM425.711 402V401.636C424.885 401.566 424.787 401.482 424.787 400.558V398.108C424.787 396.428 423.989 395.714 422.855 395.714C422.099 395.714 421.343 396.232 420.853 396.736V392.032C420.307 392.2 419.467 392.424 418.795 392.522V392.844C419.719 392.928 419.747 392.998 419.747 393.88V400.558C419.747 401.482 419.621 401.566 418.781 401.636V402H421.749V401.636C420.923 401.552 420.853 401.454 420.853 400.558V397.226C421.245 396.778 421.777 396.512 422.309 396.512C423.247 396.512 423.681 397.086 423.681 398.234V400.558C423.681 401.468 423.569 401.552 422.757 401.636V402H425.711ZM433 401.314L432.608 401.286C432.076 401.258 431.964 401.16 431.964 400.46V395.784C431.222 395.938 430.494 395.994 429.766 396.036V396.358C430.774 396.498 430.858 396.554 430.858 397.352V400.614C430.382 401.076 429.85 401.286 429.346 401.286C428.716 401.286 428.114 400.95 428.114 399.704V397.828C428.114 396.876 428.114 396.218 428.156 395.784C427.484 395.91 426.812 395.994 426.154 396.036V396.358C426.952 396.512 427.008 396.568 427.008 397.338V400.082C427.008 401.594 427.806 402.168 428.744 402.168C429.122 402.168 429.416 402.056 429.822 401.818C430.214 401.58 430.536 401.328 430.858 401.09V402.084L430.942 402.168C431.642 401.958 432.356 401.762 433 401.664V401.314ZM439.289 401.454L439.149 401.09C439.009 401.174 438.813 401.244 438.645 401.244C438.407 401.244 438.155 401.034 438.155 400.404V397.8C438.155 397.072 438.015 396.498 437.525 396.092C437.217 395.84 436.797 395.714 436.377 395.714C435.579 395.868 434.669 396.414 434.277 396.694C434.011 396.89 433.829 397.044 433.829 397.254C433.829 397.576 434.193 397.856 434.445 397.856C434.641 397.856 434.795 397.758 434.851 397.534C434.963 397.1 435.089 396.792 435.271 396.61C435.411 396.442 435.621 396.33 435.901 396.33C436.601 396.33 437.077 396.904 437.077 397.912V398.164C436.769 398.416 435.747 398.794 434.907 399.074C434.137 399.34 433.773 399.774 433.773 400.46C433.773 401.342 434.459 402.168 435.453 402.168C435.873 402.168 436.545 401.65 437.105 401.272C437.175 401.51 437.259 401.706 437.441 401.902C437.595 402.042 437.889 402.168 438.099 402.168L439.289 401.454ZM437.077 400.824C436.811 401.076 436.321 401.314 435.957 401.328C435.523 401.328 434.963 400.978 434.963 400.25C434.963 399.746 435.271 399.48 435.817 399.228C436.111 399.088 436.783 398.794 437.077 398.64V400.824ZM450.839 395.028C450.769 394.216 450.699 393.194 450.699 392.55H450.405C450.181 392.816 450.069 392.9 449.691 392.9H444.161C443.769 392.9 443.587 392.872 443.391 392.55H443.111C443.083 393.32 443.013 394.23 442.943 395.07H443.349C443.517 394.454 443.629 394.062 443.797 393.824C443.979 393.502 444.259 393.39 445.421 393.39H446.289V400.278C446.289 401.384 446.177 401.524 444.903 401.608V402H448.921V401.608C447.591 401.524 447.479 401.384 447.479 400.278V393.39H448.473C449.523 393.39 449.761 393.488 449.985 393.824C450.153 394.048 450.279 394.398 450.433 395.07L450.839 395.028ZM452.563 397.198V395.672C451.891 395.966 451.275 396.134 450.589 396.246V396.554C451.387 396.666 451.457 396.722 451.457 397.646V400.544C451.457 401.468 451.359 401.552 450.491 401.636V402H453.711V401.636C452.633 401.552 452.563 401.468 452.563 400.544V397.982C452.871 397.198 453.319 396.778 453.683 396.778C453.907 396.778 454.075 396.862 454.271 397.072C454.355 397.156 454.481 397.17 454.649 397.1C454.915 396.974 455.097 396.694 455.097 396.414C455.097 396.078 454.761 395.714 454.285 395.714C453.613 395.714 453.011 396.498 452.591 397.198H452.563ZM460.353 400.516C459.849 400.992 459.317 401.216 458.757 401.216C457.777 401.216 456.685 400.432 456.671 398.528C458.337 398.472 460.087 398.332 460.325 398.29C460.577 398.234 460.647 398.122 460.647 397.842C460.647 396.75 459.709 395.714 458.547 395.714C457.819 395.714 457.063 396.092 456.489 396.736C455.915 397.366 455.565 398.22 455.565 399.186C455.565 400.768 456.573 402.168 458.295 402.168C458.729 402.168 459.695 401.916 460.577 400.81L460.353 400.516ZM458.211 396.232C458.981 396.232 459.457 396.904 459.443 397.632C459.443 397.828 459.359 397.912 459.107 397.912C458.295 397.94 457.525 397.954 456.741 397.954C456.951 396.82 457.567 396.232 458.211 396.232ZM466.369 400.516C465.865 400.992 465.333 401.216 464.773 401.216C463.793 401.216 462.701 400.432 462.687 398.528C464.353 398.472 466.103 398.332 466.341 398.29C466.593 398.234 466.663 398.122 466.663 397.842C466.663 396.75 465.725 395.714 464.562 395.714C463.835 395.714 463.079 396.092 462.505 396.736C461.931 397.366 461.581 398.22 461.581 399.186C461.581 400.768 462.589 402.168 464.311 402.168C464.745 402.168 465.711 401.916 466.593 400.81L466.369 400.516ZM464.227 396.232C464.997 396.232 465.473 396.904 465.459 397.632C465.459 397.828 465.375 397.912 465.123 397.912C464.311 397.94 463.541 397.954 462.757 397.954C462.967 396.82 463.583 396.232 464.227 396.232ZM412.066 409.9H408.762V410.292C409.728 410.348 410.064 410.53 410.134 411.16C410.176 411.552 410.232 412.196 410.232 413.484V416.928H410.19L404.352 409.9H402.28V410.292C402.938 410.348 403.246 410.46 403.526 410.81C403.778 411.146 403.806 411.202 403.806 412.224V415.304C403.806 416.592 403.764 417.264 403.722 417.698C403.652 418.384 403.302 418.566 402.49 418.608V419H405.808V418.608C404.856 418.552 404.534 418.384 404.464 417.67C404.422 417.264 404.38 416.592 404.38 415.304V411.79H404.408L410.372 419.126H410.806V413.484C410.806 412.182 410.834 411.552 410.89 411.132C410.946 410.516 411.282 410.334 412.066 410.292V409.9ZM418.097 418.454L417.957 418.09C417.817 418.174 417.621 418.244 417.453 418.244C417.215 418.244 416.963 418.034 416.963 417.404V414.8C416.963 414.072 416.823 413.498 416.333 413.092C416.025 412.84 415.605 412.714 415.185 412.714C414.387 412.868 413.477 413.414 413.085 413.694C412.819 413.89 412.637 414.044 412.637 414.254C412.637 414.576 413.001 414.856 413.253 414.856C413.449 414.856 413.603 414.758 413.659 414.534C413.771 414.1 413.897 413.792 414.079 413.61C414.219 413.442 414.429 413.33 414.709 413.33C415.409 413.33 415.885 413.904 415.885 414.912V415.164C415.577 415.416 414.555 415.794 413.715 416.074C412.945 416.34 412.581 416.774 412.581 417.46C412.581 418.342 413.267 419.168 414.261 419.168C414.681 419.168 415.353 418.65 415.913 418.272C415.983 418.51 416.067 418.706 416.249 418.902C416.403 419.042 416.697 419.168 416.907 419.168L418.097 418.454ZM415.885 417.824C415.619 418.076 415.129 418.314 414.765 418.328C414.331 418.328 413.771 417.978 413.771 417.25C413.771 416.746 414.079 416.48 414.625 416.228C414.919 416.088 415.591 415.794 415.885 415.64V417.824ZM422.1 418.496L421.974 418.132C421.778 418.23 421.456 418.37 421.106 418.37C420.756 418.37 420.294 418.16 420.294 417.026V413.428H421.792C421.96 413.33 422.002 413.022 421.876 412.882H420.294V410.964L420.098 410.936L419.188 411.86V412.882H418.544L418.166 413.288L418.222 413.428H419.188V417.502C419.188 418.608 419.678 419.168 420.56 419.168C420.686 419.168 420.91 419.112 421.148 418.986L422.1 418.496ZM424.152 411.496C424.558 411.496 424.866 411.16 424.866 410.782C424.866 410.362 424.558 410.054 424.166 410.054C423.788 410.054 423.452 410.362 423.452 410.782C423.452 411.16 423.788 411.496 424.152 411.496ZM425.79 419V418.636C424.894 418.552 424.796 418.468 424.796 417.516V412.686C424.18 412.938 423.522 413.12 422.808 413.232V413.568C423.648 413.708 423.69 413.764 423.69 414.632V417.516C423.69 418.468 423.592 418.552 422.71 418.636V419H425.79ZM429.592 412.714C428.318 412.714 426.526 413.764 426.526 416.074C426.526 417.628 427.674 419.168 429.592 419.168C430.978 419.168 432.63 418.09 432.63 415.836C432.63 414.1 431.328 412.714 429.592 412.714ZM429.452 413.176C430.67 413.176 431.328 414.506 431.328 416.144C431.328 418.062 430.614 418.706 429.746 418.706C428.598 418.706 427.828 417.39 427.828 415.626C427.828 414.044 428.584 413.176 429.452 413.176ZM440.302 419V418.636C439.49 418.552 439.42 418.496 439.42 417.544V414.842C439.42 413.484 438.72 412.714 437.614 412.714C437.208 412.714 436.844 412.882 436.452 413.134C436.102 413.372 435.794 413.582 435.514 413.792V412.672C434.898 412.952 434.24 413.12 433.568 413.246V413.568C434.324 413.708 434.408 413.75 434.408 414.646V417.544C434.408 418.468 434.338 418.538 433.386 418.636V419H436.424V418.636C435.598 418.552 435.514 418.496 435.514 417.544V414.254C435.934 413.89 436.48 413.54 437.04 413.54C437.978 413.54 438.314 414.17 438.314 415.136V417.474C438.314 418.44 438.216 418.552 437.39 418.636V419H440.302ZM446.658 418.454L446.518 418.09C446.378 418.174 446.182 418.244 446.014 418.244C445.776 418.244 445.524 418.034 445.524 417.404V414.8C445.524 414.072 445.384 413.498 444.894 413.092C444.586 412.84 444.166 412.714 443.746 412.714C442.948 412.868 442.038 413.414 441.646 413.694C441.38 413.89 441.198 414.044 441.198 414.254C441.198 414.576 441.562 414.856 441.814 414.856C442.01 414.856 442.164 414.758 442.22 414.534C442.332 414.1 442.458 413.792 442.64 413.61C442.78 413.442 442.99 413.33 443.27 413.33C443.97 413.33 444.446 413.904 444.446 414.912V415.164C444.138 415.416 443.116 415.794 442.276 416.074C441.506 416.34 441.142 416.774 441.142 417.46C441.142 418.342 441.828 419.168 442.822 419.168C443.242 419.168 443.914 418.65 444.474 418.272C444.544 418.51 444.628 418.706 444.81 418.902C444.964 419.042 445.258 419.168 445.468 419.168L446.658 418.454ZM444.446 417.824C444.18 418.076 443.69 418.314 443.326 418.328C442.892 418.328 442.332 417.978 442.332 417.25C442.332 416.746 442.64 416.48 443.186 416.228C443.48 416.088 444.152 415.794 444.446 415.64V417.824ZM450.148 419V418.636C449.252 418.552 449.14 418.468 449.14 417.544V409.032C448.664 409.2 447.796 409.438 447.068 409.522V409.858C447.95 409.928 448.034 409.97 448.034 410.922V417.544C448.034 418.468 447.908 418.552 447.026 418.636V419H450.148ZM454.173 409.9V410.292C455.209 410.362 455.321 410.418 455.321 411.65V417.25C455.321 418.412 455.209 418.524 454.089 418.608V419H457.883V418.608C456.623 418.524 456.497 418.454 456.497 417.264V415.066L457.533 415.332C457.687 415.346 457.953 415.346 458.163 415.332C459.521 415.15 460.893 414.268 460.893 412.462C460.893 411.538 460.529 410.894 459.983 410.488C459.423 410.068 458.625 409.9 457.631 409.9H454.173ZM456.497 411.174C456.497 410.782 456.539 410.614 456.651 410.516C456.749 410.418 457.043 410.348 457.435 410.348C458.583 410.348 459.549 410.992 459.549 412.504C459.549 414.282 458.429 414.772 457.519 414.772C457.057 414.772 456.679 414.674 456.497 414.604V411.174ZM467.166 418.454L467.026 418.09C466.886 418.174 466.69 418.244 466.522 418.244C466.284 418.244 466.032 418.034 466.032 417.404V414.8C466.032 414.072 465.892 413.498 465.402 413.092C465.094 412.84 464.674 412.714 464.254 412.714C463.456 412.868 462.546 413.414 462.154 413.694C461.888 413.89 461.706 414.044 461.706 414.254C461.706 414.576 462.07 414.856 462.322 414.856C462.518 414.856 462.672 414.758 462.728 414.534C462.84 414.1 462.966 413.792 463.148 413.61C463.288 413.442 463.498 413.33 463.778 413.33C464.478 413.33 464.954 413.904 464.954 414.912V415.164C464.646 415.416 463.624 415.794 462.784 416.074C462.014 416.34 461.65 416.774 461.65 417.46C461.65 418.342 462.336 419.168 463.33 419.168C463.75 419.168 464.422 418.65 464.982 418.272C465.052 418.51 465.136 418.706 465.318 418.902C465.472 419.042 465.766 419.168 465.976 419.168L467.166 418.454ZM464.954 417.824C464.688 418.076 464.198 418.314 463.834 418.328C463.4 418.328 462.84 417.978 462.84 417.25C462.84 416.746 463.148 416.48 463.694 416.228C463.988 416.088 464.66 415.794 464.954 415.64V417.824ZM469.667 414.198V412.672C468.995 412.966 468.379 413.134 467.693 413.246V413.554C468.491 413.666 468.561 413.722 468.561 414.646V417.544C468.561 418.468 468.463 418.552 467.595 418.636V419H470.815V418.636C469.737 418.552 469.667 418.468 469.667 417.544V414.982C469.975 414.198 470.423 413.778 470.787 413.778C471.011 413.778 471.179 413.862 471.375 414.072C471.459 414.156 471.585 414.17 471.753 414.1C472.019 413.974 472.201 413.694 472.201 413.414C472.201 413.078 471.865 412.714 471.389 412.714C470.717 412.714 470.115 413.498 469.695 414.198H469.667ZM479.455 419V418.636C478.923 418.608 478.559 418.398 478.055 417.866C477.579 417.376 476.165 415.724 475.885 415.304C476.487 414.604 476.739 414.324 477.089 413.974C477.635 413.456 477.929 413.316 478.895 413.148V412.798L476.039 412.924V413.288C476.697 413.358 476.739 413.47 476.459 413.904C476.193 414.282 475.773 414.828 475.465 415.136C475.255 415.36 475.003 415.542 474.583 415.626V409.032C474.037 409.214 473.239 409.452 472.567 409.522V409.844C473.421 409.928 473.491 409.998 473.491 410.922V417.544C473.491 418.44 473.407 418.552 472.469 418.636V419H475.605V418.636C474.709 418.552 474.583 418.468 474.583 417.544V415.99C474.681 415.962 474.751 415.948 474.807 415.948C474.933 415.948 475.059 416.018 475.241 416.256C476.011 417.194 476.893 418.314 477.537 419.028L479.455 419Z" fill="#4A2C14"/>
<circle cx="135" cy="387" r="3.5" fill="#FFFAF7" stroke="#DDB99E"/>
<path d="M148.93 388.718C148.72 389.362 148.454 389.81 148.216 390.09C147.894 390.454 147.418 390.524 146.648 390.524C146.06 390.524 145.584 390.496 145.304 390.342C145.052 390.202 144.982 389.922 144.982 389.166V383.636C144.982 382.446 145.108 382.376 146.214 382.292V381.9H142.56V382.292C143.694 382.376 143.792 382.446 143.792 383.636V389.236C143.792 390.426 143.68 390.524 142.504 390.608V391H148.846C148.972 390.566 149.266 389.236 149.35 388.802L148.93 388.718ZM153.24 384.714C151.966 384.714 150.174 385.764 150.174 388.074C150.174 389.628 151.322 391.168 153.24 391.168C154.626 391.168 156.278 390.09 156.278 387.836C156.278 386.1 154.976 384.714 153.24 384.714ZM153.1 385.176C154.318 385.176 154.976 386.506 154.976 388.144C154.976 390.062 154.262 390.706 153.394 390.706C152.246 390.706 151.476 389.39 151.476 387.626C151.476 386.044 152.232 385.176 153.1 385.176ZM161.273 386.45C161.231 386.1 161.077 385.274 160.965 384.952C160.671 384.84 160.293 384.714 159.719 384.714C158.431 384.714 157.591 385.54 157.591 386.52C157.591 387.598 158.501 388.06 159.341 388.452C160.041 388.774 160.447 389.11 160.447 389.726C160.447 390.314 159.971 390.706 159.453 390.706C158.613 390.706 157.983 389.894 157.731 388.97L157.367 389.04C157.367 389.544 157.493 390.496 157.591 390.692C157.843 390.902 158.487 391.168 159.201 391.168C160.321 391.168 161.511 390.51 161.511 389.236C161.511 388.27 160.797 387.766 159.747 387.332C159.117 387.066 158.557 386.744 158.557 386.114C158.557 385.568 158.935 385.148 159.467 385.148C160.153 385.148 160.643 385.708 160.909 386.534L161.273 386.45ZM174.527 391V390.608C173.617 390.524 173.435 390.398 172.987 389.194C172.091 386.758 171.153 384.098 170.285 381.69L169.851 381.816L166.953 389.166C166.463 390.398 166.267 390.482 165.385 390.608V391H168.423V390.608C167.373 390.51 167.247 390.37 167.555 389.488C167.737 388.9 167.947 388.312 168.171 387.682H171.153C171.461 388.536 171.741 389.292 171.923 389.838C172.105 390.384 171.979 390.496 171.097 390.608V391H174.527ZM170.957 387.08H168.381C168.801 385.932 169.249 384.714 169.697 383.51H169.725L170.957 387.08ZM182.066 391V390.636C181.254 390.552 181.184 390.496 181.184 389.544V386.842C181.184 385.484 180.484 384.714 179.378 384.714C178.972 384.714 178.608 384.882 178.216 385.134C177.866 385.372 177.558 385.582 177.278 385.792V384.672C176.662 384.952 176.004 385.12 175.332 385.246V385.568C176.088 385.708 176.172 385.75 176.172 386.646V389.544C176.172 390.468 176.102 390.538 175.15 390.636V391H178.188V390.636C177.362 390.552 177.278 390.496 177.278 389.544V386.254C177.698 385.89 178.244 385.54 178.804 385.54C179.742 385.54 180.078 386.17 180.078 387.136V389.474C180.078 390.44 179.98 390.552 179.154 390.636V391H182.066ZM188.759 384.868C188.255 384.952 187.541 385.036 186.855 385.064C186.449 384.84 185.987 384.714 185.511 384.714C184.433 384.714 183.005 385.442 183.005 387.038C183.005 387.99 183.607 388.648 184.237 388.914C184.013 389.194 183.565 389.558 183.005 389.768C182.991 389.908 183.033 390.146 183.159 390.356C183.341 390.65 183.691 390.972 184.195 391.126C183.859 391.378 183.313 391.826 183.033 392.106C182.823 392.316 182.697 392.582 182.697 392.89C182.711 393.688 183.565 394.598 185.119 394.598C186.981 394.598 188.619 393.24 188.619 391.826C188.619 390.454 187.471 390.174 186.603 390.174C186.141 390.174 185.637 390.188 185.133 390.188C184.503 390.188 184.251 389.922 184.251 389.642C184.251 389.446 184.475 389.194 184.671 389.068C184.895 389.096 185.147 389.138 185.385 389.138C186.575 389.138 187.835 388.41 187.835 386.898C187.835 386.394 187.681 385.96 187.415 385.652L188.213 385.694C188.437 385.568 188.717 385.204 188.843 384.98L188.759 384.868ZM185.371 385.134C186.169 385.134 186.687 385.918 186.687 387.024C186.687 388.13 186.141 388.676 185.525 388.69C184.741 388.69 184.209 387.906 184.209 386.814C184.209 385.722 184.755 385.134 185.371 385.134ZM185.679 391.154C186.267 391.154 186.673 391.196 187.023 391.336C187.429 391.504 187.667 391.854 187.667 392.33C187.667 393.198 186.981 393.884 185.651 393.884C184.615 393.884 183.803 393.31 183.803 392.554C183.803 392.148 184.083 391.756 184.447 391.462C184.699 391.238 185.007 391.154 185.679 391.154ZM194.036 389.516C193.532 389.992 193 390.216 192.44 390.216C191.46 390.216 190.368 389.432 190.354 387.528C192.02 387.472 193.77 387.332 194.008 387.29C194.26 387.234 194.33 387.122 194.33 386.842C194.33 385.75 193.392 384.714 192.23 384.714C191.502 384.714 190.746 385.092 190.172 385.736C189.598 386.366 189.248 387.22 189.248 388.186C189.248 389.768 190.256 391.168 191.978 391.168C192.412 391.168 193.378 390.916 194.26 389.81L194.036 389.516ZM191.894 385.232C192.664 385.232 193.14 385.904 193.126 386.632C193.126 386.828 193.042 386.912 192.79 386.912C191.978 386.94 191.208 386.954 190.424 386.954C190.634 385.82 191.25 385.232 191.894 385.232ZM197.955 391V390.636C197.059 390.552 196.947 390.468 196.947 389.544V381.032C196.471 381.2 195.603 381.438 194.875 381.522V381.858C195.757 381.928 195.841 381.97 195.841 382.922V389.544C195.841 390.468 195.715 390.552 194.833 390.636V391H197.955ZM203.47 389.516C202.966 389.992 202.434 390.216 201.874 390.216C200.894 390.216 199.802 389.432 199.788 387.528C201.454 387.472 203.204 387.332 203.442 387.29C203.694 387.234 203.764 387.122 203.764 386.842C203.764 385.75 202.826 384.714 201.664 384.714C200.936 384.714 200.18 385.092 199.606 385.736C199.032 386.366 198.682 387.22 198.682 388.186C198.682 389.768 199.69 391.168 201.412 391.168C201.846 391.168 202.812 390.916 203.694 389.81L203.47 389.516ZM201.328 385.232C202.098 385.232 202.574 385.904 202.56 386.632C202.56 386.828 202.476 386.912 202.224 386.912C201.412 386.94 200.642 386.954 199.858 386.954C200.068 385.82 200.684 385.232 201.328 385.232ZM208.591 386.45C208.549 386.1 208.395 385.274 208.283 384.952C207.989 384.84 207.611 384.714 207.037 384.714C205.749 384.714 204.909 385.54 204.909 386.52C204.909 387.598 205.819 388.06 206.659 388.452C207.359 388.774 207.765 389.11 207.765 389.726C207.765 390.314 207.289 390.706 206.771 390.706C205.931 390.706 205.301 389.894 205.049 388.97L204.685 389.04C204.685 389.544 204.811 390.496 204.909 390.692C205.161 390.902 205.805 391.168 206.519 391.168C207.639 391.168 208.829 390.51 208.829 389.236C208.829 388.27 208.115 387.766 207.065 387.332C206.435 387.066 205.875 386.744 205.875 386.114C205.875 385.568 206.253 385.148 206.785 385.148C207.471 385.148 207.961 385.708 208.227 386.534L208.591 386.45Z" fill="#4A2C14"/>
<circle cx="478" cy="97" r="3.5" fill="#FFFAF7" stroke="#DDB99E"/>
<path d="M422.53 97.718C422.32 98.362 422.054 98.81 421.816 99.09C421.494 99.454 421.018 99.524 420.248 99.524C419.66 99.524 419.184 99.496 418.904 99.342C418.652 99.202 418.582 98.922 418.582 98.166V92.636C418.582 91.446 418.708 91.376 419.814 91.292V90.9H416.16V91.292C417.294 91.376 417.392 91.446 417.392 92.636V98.236C417.392 99.426 417.28 99.524 416.104 99.608V100H422.446C422.572 99.566 422.866 98.236 422.95 97.802L422.53 97.718ZM429.4 99.454L429.26 99.09C429.12 99.174 428.924 99.244 428.756 99.244C428.518 99.244 428.266 99.034 428.266 98.404V95.8C428.266 95.072 428.126 94.498 427.636 94.092C427.328 93.84 426.908 93.714 426.488 93.714C425.69 93.868 424.78 94.414 424.388 94.694C424.122 94.89 423.94 95.044 423.94 95.254C423.94 95.576 424.304 95.856 424.556 95.856C424.752 95.856 424.906 95.758 424.962 95.534C425.074 95.1 425.2 94.792 425.382 94.61C425.522 94.442 425.732 94.33 426.012 94.33C426.712 94.33 427.188 94.904 427.188 95.912V96.164C426.88 96.416 425.858 96.794 425.018 97.074C424.248 97.34 423.884 97.774 423.884 98.46C423.884 99.342 424.57 100.168 425.564 100.168C425.984 100.168 426.656 99.65 427.216 99.272C427.286 99.51 427.37 99.706 427.552 99.902C427.706 100.042 428 100.168 428.21 100.168L429.4 99.454ZM427.188 98.824C426.922 99.076 426.432 99.314 426.068 99.328C425.634 99.328 425.074 98.978 425.074 98.25C425.074 97.746 425.382 97.48 425.928 97.228C426.222 97.088 426.894 96.794 427.188 96.64V98.824ZM433.929 95.45C433.887 95.1 433.733 94.274 433.621 93.952C433.327 93.84 432.949 93.714 432.375 93.714C431.087 93.714 430.247 94.54 430.247 95.52C430.247 96.598 431.157 97.06 431.997 97.452C432.697 97.774 433.103 98.11 433.103 98.726C433.103 99.314 432.627 99.706 432.109 99.706C431.269 99.706 430.639 98.894 430.387 97.97L430.023 98.04C430.023 98.544 430.149 99.496 430.247 99.692C430.499 99.902 431.143 100.168 431.857 100.168C432.977 100.168 434.167 99.51 434.167 98.236C434.167 97.27 433.453 96.766 432.403 96.332C431.773 96.066 431.213 95.744 431.213 95.114C431.213 94.568 431.591 94.148 432.123 94.148C432.809 94.148 433.299 94.708 433.565 95.534L433.929 95.45ZM447.38 90.9H444.23V91.292C445.364 91.432 445.448 91.544 445.182 92.342C444.734 93.742 443.67 96.472 442.97 98.222H442.942C442.004 95.814 440.982 93.112 440.618 92.118C440.394 91.502 440.45 91.404 441.444 91.292V90.9H438.014V91.306C438.84 91.376 439.064 91.488 439.47 92.538C440.282 94.568 441.43 97.578 442.368 100.14H442.802C443.852 97.256 445.336 93.7 445.714 92.79C446.246 91.53 446.428 91.404 447.38 91.292V90.9ZM451.558 98.516C451.054 98.992 450.522 99.216 449.962 99.216C448.982 99.216 447.89 98.432 447.876 96.528C449.542 96.472 451.292 96.332 451.53 96.29C451.782 96.234 451.852 96.122 451.852 95.842C451.852 94.75 450.914 93.714 449.752 93.714C449.024 93.714 448.268 94.092 447.694 94.736C447.12 95.366 446.77 96.22 446.77 97.186C446.77 98.768 447.778 100.168 449.5 100.168C449.934 100.168 450.9 99.916 451.782 98.81L451.558 98.516ZM449.416 94.232C450.186 94.232 450.662 94.904 450.648 95.632C450.648 95.828 450.564 95.912 450.312 95.912C449.5 95.94 448.73 95.954 447.946 95.954C448.156 94.82 448.772 94.232 449.416 94.232ZM458.667 93.868C458.163 93.952 457.449 94.036 456.763 94.064C456.357 93.84 455.895 93.714 455.419 93.714C454.341 93.714 452.913 94.442 452.913 96.038C452.913 96.99 453.515 97.648 454.145 97.914C453.921 98.194 453.473 98.558 452.913 98.768C452.899 98.908 452.941 99.146 453.067 99.356C453.249 99.65 453.599 99.972 454.103 100.126C453.767 100.378 453.221 100.826 452.941 101.106C452.731 101.316 452.605 101.582 452.605 101.89C452.619 102.688 453.473 103.598 455.027 103.598C456.889 103.598 458.527 102.24 458.527 100.826C458.527 99.454 457.379 99.174 456.511 99.174C456.049 99.174 455.545 99.188 455.041 99.188C454.411 99.188 454.159 98.922 454.159 98.642C454.159 98.446 454.383 98.194 454.579 98.068C454.803 98.096 455.055 98.138 455.293 98.138C456.483 98.138 457.743 97.41 457.743 95.898C457.743 95.394 457.589 94.96 457.323 94.652L458.121 94.694C458.345 94.568 458.625 94.204 458.751 93.98L458.667 93.868ZM455.279 94.134C456.077 94.134 456.595 94.918 456.595 96.024C456.595 97.13 456.049 97.676 455.433 97.69C454.649 97.69 454.117 96.906 454.117 95.814C454.117 94.722 454.663 94.134 455.279 94.134ZM455.587 100.154C456.175 100.154 456.581 100.196 456.931 100.336C457.337 100.504 457.575 100.854 457.575 101.33C457.575 102.198 456.889 102.884 455.559 102.884C454.523 102.884 453.711 102.31 453.711 101.554C453.711 101.148 453.991 100.756 454.355 100.462C454.607 100.238 454.915 100.154 455.587 100.154ZM464.81 99.454L464.67 99.09C464.53 99.174 464.334 99.244 464.166 99.244C463.928 99.244 463.676 99.034 463.676 98.404V95.8C463.676 95.072 463.536 94.498 463.046 94.092C462.738 93.84 462.318 93.714 461.898 93.714C461.1 93.868 460.19 94.414 459.798 94.694C459.532 94.89 459.35 95.044 459.35 95.254C459.35 95.576 459.714 95.856 459.966 95.856C460.162 95.856 460.316 95.758 460.372 95.534C460.484 95.1 460.61 94.792 460.792 94.61C460.932 94.442 461.142 94.33 461.422 94.33C462.122 94.33 462.598 94.904 462.598 95.912V96.164C462.29 96.416 461.268 96.794 460.428 97.074C459.658 97.34 459.294 97.774 459.294 98.46C459.294 99.342 459.98 100.168 460.974 100.168C461.394 100.168 462.066 99.65 462.626 99.272C462.696 99.51 462.78 99.706 462.962 99.902C463.116 100.042 463.41 100.168 463.62 100.168L464.81 99.454ZM462.598 98.824C462.332 99.076 461.842 99.314 461.478 99.328C461.044 99.328 460.484 98.978 460.484 98.25C460.484 97.746 460.792 97.48 461.338 97.228C461.632 97.088 462.304 96.794 462.598 96.64V98.824ZM469.339 95.45C469.297 95.1 469.143 94.274 469.031 93.952C468.737 93.84 468.359 93.714 467.785 93.714C466.497 93.714 465.657 94.54 465.657 95.52C465.657 96.598 466.567 97.06 467.407 97.452C468.107 97.774 468.513 98.11 468.513 98.726C468.513 99.314 468.037 99.706 467.519 99.706C466.679 99.706 466.049 98.894 465.797 97.97L465.433 98.04C465.433 98.544 465.559 99.496 465.657 99.692C465.909 99.902 466.553 100.168 467.267 100.168C468.387 100.168 469.577 99.51 469.577 98.236C469.577 97.27 468.863 96.766 467.813 96.332C467.183 96.066 466.623 95.744 466.623 95.114C466.623 94.568 467.001 94.148 467.533 94.148C468.219 94.148 468.709 94.708 468.975 95.534L469.339 95.45Z" fill="#181818"/>
<path d="M493 536V539H532V536" stroke="black"/>
<path d="M463.926 539.04C463.506 539.922 463.324 539.978 462.568 539.978H459.95L461.938 537.892C463.226 536.52 463.786 535.694 463.786 534.476C463.786 533.006 462.666 532.11 461.434 532.11C460.622 532.11 459.964 532.474 459.544 532.936L458.746 534.07L459.054 534.35C459.418 533.804 460.006 533.048 460.958 533.048C461.994 533.048 462.61 533.734 462.61 534.91C462.61 536.114 461.728 537.262 460.86 538.298C460.16 539.11 459.376 539.908 458.592 540.678V541H463.828C463.996 540.37 464.136 539.754 464.318 539.166L463.926 539.04ZM468.245 532.11C466.145 532.11 465.375 534.602 465.375 536.646C465.375 538.858 466.131 541.168 468.245 541.168C470.345 541.168 471.087 538.676 471.087 536.632C471.087 534.476 470.345 532.11 468.245 532.11ZM468.231 532.572C469.491 532.572 469.841 534.644 469.841 536.632C469.841 538.592 469.505 540.692 468.245 540.692C467.027 540.692 466.621 538.578 466.621 536.618C466.621 534.672 466.957 532.572 468.231 532.572ZM485.927 541V540.636C485.129 540.552 485.017 540.496 485.017 539.558V536.856C485.017 535.484 484.331 534.714 483.239 534.714C482.847 534.714 482.483 534.882 482.189 535.078C481.839 535.288 481.433 535.554 481.027 535.862C480.747 535.134 480.145 534.714 479.473 534.714C479.025 534.714 478.689 534.868 478.325 535.092C477.905 535.358 477.597 535.61 477.303 535.806V534.672C476.687 534.952 475.973 535.134 475.357 535.246V535.568C476.169 535.694 476.211 535.764 476.211 536.66V539.558C476.211 540.468 476.085 540.552 475.161 540.636V541H478.115V540.636C477.429 540.552 477.317 540.468 477.317 539.558V536.268C477.737 535.918 478.283 535.54 478.843 535.54C479.697 535.54 480.061 536.114 480.061 537.15V539.558C480.061 540.482 479.935 540.552 479.067 540.636V541H482.063V540.636C481.293 540.552 481.167 540.468 481.167 539.586V536.856C481.167 536.59 481.153 536.436 481.125 536.268C481.657 535.82 482.189 535.54 482.693 535.54C483.575 535.54 483.925 536.17 483.925 537.164V539.502C483.925 540.496 483.771 540.552 482.945 540.636V541H485.927ZM488.144 533.496C488.55 533.496 488.858 533.16 488.858 532.782C488.858 532.362 488.55 532.054 488.158 532.054C487.78 532.054 487.444 532.362 487.444 532.782C487.444 533.16 487.78 533.496 488.144 533.496ZM489.782 541V540.636C488.886 540.552 488.788 540.468 488.788 539.516V534.686C488.172 534.938 487.514 535.12 486.8 535.232V535.568C487.64 535.708 487.682 535.764 487.682 536.632V539.516C487.682 540.468 487.584 540.552 486.702 540.636V541H489.782Z" fill="black"/>
</svg>
